<svg xmlns="http://www.w3.org/2000/svg" width="170.935" height="26" viewBox="0 0 170.935 26"><defs><style>.a{fill:#fff;}</style></defs><g transform="translate(123.193 -52)"><path class="a" d="M176.181,36.092q14.38,9.35-5.639,24.962l30.451-17.571Z" transform="translate(-293.735 16.946)"/><path class="a" d="M229.8,58.789q-13.712-9.217,5.046-24.516L205.433,51.22Z" transform="translate(-308.711 17.727)"/><path class="a" d="M156.974,82.437h-3.283l-3.165,16.836h3.225Z" transform="translate(-187.039 -26.455)"/><path class="a" d="M103.136,85.471H101.4l-5.164,15.1h1.911l2.985-9.88,2.746,9.88H104.9l6.717-10.328-1.105,10.328h3.4l1.254-15.1h-1.881l-7.075,10.238Z" transform="translate(-163.739 -27.757)"/><path class="a" d="M188.216,92.217a5.139,5.139,0,0,0-3.761,2.12l.6-2H181.8l-2.09,11.134a9.349,9.349,0,0,1,3.166,0l.716-5.4a7.89,7.89,0,0,1,.686-2.3,2.307,2.307,0,0,1,2.179-1.433,1.394,1.394,0,0,1,.837.239,1.459,1.459,0,0,1,.328,1.313,12.944,12.944,0,0,1-.239,1.463l-1.374,6.119a8.431,8.431,0,0,1,3.224,0l.866-5.341a8.864,8.864,0,0,1,.686-2.33,2.313,2.313,0,0,1,2.119-1.462,1.071,1.071,0,0,1,1.106.626,5.053,5.053,0,0,1-.091,2.179l-1.551,6.328a8.281,8.281,0,0,1,3.193,0l1.344-7.133a5.2,5.2,0,0,0-.091-2.746c-.239-.747-1.074-1.135-2.506-1.195a4.58,4.58,0,0,0-3.732,1.97,2.218,2.218,0,0,0-2.358-2.15" transform="translate(-199.565 -30.653)"/><path class="a" d="M272.472,94.284l.6-2h-3.223l-2.119,11.135a9.344,9.344,0,0,1,3.163,0l.748-5.4a8.049,8.049,0,0,1,.656-2.3,2.345,2.345,0,0,1,2.21-1.434,1.236,1.236,0,0,1,.805.239,1.549,1.549,0,0,1,.358,1.314c-.03.179-.119.686-.239,1.462l-1.372,6.12a8.212,8.212,0,0,1,3.194,0l.895-5.344a8.967,8.967,0,0,1,.658-2.327,2.353,2.353,0,0,1,2.148-1.463,1.12,1.12,0,0,1,1.105.627,5.075,5.075,0,0,1-.119,2.15l-1.553,6.358a8.376,8.376,0,0,1,3.225,0l1.342-7.134a5.208,5.208,0,0,0-.09-2.746c-.268-.748-1.1-1.135-2.507-1.2a4.635,4.635,0,0,0-3.762,1.971,2.208,2.208,0,0,0-2.327-2.15,5.144,5.144,0,0,0-3.792,2.119" transform="translate(-237.345 -30.63)"/><path class="a" d="M226.009,87.351a4.265,4.265,0,0,1,.447-2.09H215.2a5.464,5.464,0,0,1-.507,1.911,25.514,25.514,0,0,1,4.09-.328,133.082,133.082,0,0,1-2.686,13.491,18.262,18.262,0,0,1,3.611,0l2.418-13.342a16.97,16.97,0,0,1,3.881.358" transform="translate(-214.583 -27.667)"/><path class="a" d="M252.065,94.468a3.474,3.474,0,0,1,2.239-.149c.9.418,1.1,1.223.6,2.358-.06.09-.149.149-.209.239l.209.805-.776,3.463a3.817,3.817,0,0,1-1.851,1.074.85.85,0,0,1-.836-.627,2.553,2.553,0,0,1,.09-1.463,1.964,1.964,0,0,1,.746-1.283,7.671,7.671,0,0,1,1.374-.627q.85-.358,1.253-.538l-.209-.805c-.239.09-1.044.328-2.418.686a7.4,7.4,0,0,0-2.776,1.135,3.4,3.4,0,0,0-1.165,2.119,2.221,2.221,0,0,0,2.358,2.865,3.875,3.875,0,0,0,1.732-.419,16.185,16.185,0,0,0,1.583-1.193q.4,1.479,1.342,1.612a3.815,3.815,0,0,0,1.732-.239,8.7,8.7,0,0,0,.925-.479V102.5a2.272,2.272,0,0,1-.746-.179c-.239-.09-.268-.656-.03-1.672l.926-5.075a1.922,1.922,0,0,0,.059-.895c-.24-1.493-1.493-2.209-3.791-2.149a9.154,9.154,0,0,0-4.03,1.493v1.4h.239a3.022,3.022,0,0,1,1.433-.955" transform="translate(-228.997 -30.785)"/><path class="a" d="M166.4,92.58a9.28,9.28,0,0,0-4.06,1.493v1.4h.268a2.725,2.725,0,0,1,1.434-.955,3.452,3.452,0,0,1,2.239-.15c.895.418,1.074,1.225.6,2.358l-.239.239.209.805-.776,3.463a3.757,3.757,0,0,1-1.821,1.074.826.826,0,0,1-.835-.627,2.772,2.772,0,0,1,.059-1.463,2.094,2.094,0,0,1,.746-1.283,8.807,8.807,0,0,1,1.374-.627q.895-.36,1.253-.538l-.209-.805c-.209.09-1.014.328-2.418.686a7.9,7.9,0,0,0-2.776,1.135,3.378,3.378,0,0,0-1.135,2.119,2.483,2.483,0,0,0,.419,2.118,2.6,2.6,0,0,0,1.91.747,3.8,3.8,0,0,0,1.731-.417,16.8,16.8,0,0,0,1.583-1.2q.448,1.477,1.342,1.612a3.705,3.705,0,0,0,1.732-.239,5.458,5.458,0,0,0,.956-.509v-.447a2.848,2.848,0,0,1-.747-.209c-.268-.09-.268-.656-.06-1.671l.956-5.074a3.219,3.219,0,0,0,.059-.9c-.269-1.493-1.522-2.209-3.791-2.149" transform="translate(-191.214 -30.807)"/><path class="a" d="M131.785,98.789a3.372,3.372,0,0,0-1.134,2.12,2.391,2.391,0,0,0,.418,2.119,2.5,2.5,0,0,0,1.909.746,3.889,3.889,0,0,0,1.732-.418,16.545,16.545,0,0,0,1.583-1.195q.4,1.479,1.342,1.612a3.815,3.815,0,0,0,1.732-.239,5.141,5.141,0,0,0,.925-.507v-.449a3.239,3.239,0,0,1-.745-.208c-.239-.091-.269-.658-.03-1.672l.926-5.074a1.9,1.9,0,0,0,.06-.9c-.239-1.491-1.493-2.209-3.792-2.15a9.2,9.2,0,0,0-4.03,1.493v1.4h.24a3,3,0,0,1,1.432-.956,3.476,3.476,0,0,1,2.239-.149c.895.418,1.105,1.224.6,2.358-.06.089-.149.149-.209.239l.209.805-.776,3.463a3.818,3.818,0,0,1-1.851,1.075.851.851,0,0,1-.836-.628,2.555,2.555,0,0,1,.09-1.463,1.965,1.965,0,0,1,.746-1.283,7.708,7.708,0,0,1,1.374-.627q.85-.358,1.253-.538l-.209-.805c-.239.09-1.044.328-2.418.686a7.441,7.441,0,0,0-2.776,1.135" transform="translate(-178.477 -30.807)"/><path class="a" d="M239.786,98.23a4.734,4.734,0,0,0-.06-3.611c-.567-1.4-1.941-2.06-4.09-1.941a4.48,4.48,0,0,0-4.148,2.6,8.969,8.969,0,0,0-1.075,5.552,3.384,3.384,0,0,0,3.344,2.865,6.1,6.1,0,0,0,4.327-.895l.688-1.284-.179-.179a5.207,5.207,0,0,1-2.747.986c-1.91.119-2.687-1.255-2.329-4.09l.211-.985.865-2.3q.538-1.434,1.7-1.254c.716.149,1.044.686,1.014,1.582l-.179,1.97h-3.4l-.211.985Z" transform="translate(-221.285 -30.845)"/></g></svg>