<svg xmlns="http://www.w3.org/2000/svg" viewBox="0 0 850.39 850.39"><defs><style>.cls-1,.cls-2,.cls-3,.cls-4{fill:#7e7e87;}.cls-1{opacity:0.8;}.cls-1,.cls-2,.cls-3{isolation:isolate;}.cls-2{opacity:0.6;}.cls-3{opacity:0.5;}.cls-5{opacity:0.9;}.cls-6{fill:none;}</style></defs><g id="Layer_2" data-name="Layer 2"><g id="Group_88" data-name="Group 88"><path id="Path_945" data-name="Path 945" class="cls-1" d="M544.32,685.45h0a14.65,14.65,0,0,0,1.35-.62,289.41,289.41,0,0,0,80.9-57l1.11-1.11a291.84,291.84,0,0,0,28.85-34c.25-.37.62-.86.87-1.23a286.1,286.1,0,0,0,43.28-90.15c.12-.49.25-1,.37-1.48a282.76,282.76,0,0,0,10.11-76c0-7.64-.25-15.29-.86-22.81,0-.49-.13-1-.13-1.48A278.17,278.17,0,0,0,706,369.15a6.28,6.28,0,0,1-.25-1.48,298,298,0,0,0-10.35-38.35l9.12-3.2,1.48-.5a317.21,317.21,0,0,1,11.1,39.71,6.37,6.37,0,0,1,.25,1.48,309.18,309.18,0,0,1,4.56,31.69c0,.49.12,1,.12,1.48q1.11,12.58,1.11,25.53A297.05,297.05,0,0,1,713,502.82c-.12.5-.25,1-.37,1.48A298.72,298.72,0,0,1,668,598.64c-.25.37-.62.86-.86,1.23a299.08,299.08,0,0,1-30.09,35.76l-1.11,1.11a303.68,303.68,0,0,1-84.35,59.93,6.76,6.76,0,0,1-1.35.62l-1,.49-.62-1.36-4.93-10.6A2.59,2.59,0,0,1,544.32,685.45Z"/><path id="Path_946" data-name="Path 946" class="cls-2" d="M145.28,302.07c.24-.49.37-1,.61-1.36a300,300,0,0,1,54.26-82.12l1-1.11c2.46-2.59,4.93-5.18,7.52-7.77,6.29-6.29,12.82-12.21,19.48-17.88a10.34,10.34,0,0,1,1.24-1c.61-.49,1.11-1,1.72-1.48l2.72,3.45,1,1.24c-.61.49-1.11,1-1.72,1.48a10.32,10.32,0,0,1-1.24,1,299.83,299.83,0,0,0-26.63,25,8.24,8.24,0,0,0-1,1.11,298,298,0,0,0-53.52,80.4,14.77,14.77,0,0,1-.61,1.35,298.21,298.21,0,0,0-25.78,121.34c0,7.52.25,14.92.87,22.32a6.13,6.13,0,0,0,.12,1.48c.12,1.48.25,2.84.37,4.19l-1.48.13-2.71.24c-.13-1.48-.25-2.83-.37-4.31,0-.49-.13-1-.13-1.48-.61-8-1-16.16-1-24.42A298.28,298.28,0,0,1,145.28,302.07Z"/><path id="Path_947" data-name="Path 947" class="cls-3" d="M399.55,121.79c.49,0,1-.13,1.48-.13q10.91-.73,21.82-.74a307,307,0,0,1,57.1,5.3c.49.13,1,.13,1.48.25a296.66,296.66,0,0,1,58.7,17.88,14.65,14.65,0,0,1,1.35.62h0c5.55,2.34,11,4.81,16.28,7.52l1.36.74,1.48.74L558.5,158l-.74,1.36-1.48-.74-1.23-.74c-5.18-2.59-10.49-5.06-15.91-7.28a14.92,14.92,0,0,1-1.36-.62,302.14,302.14,0,0,0-57.58-17.51,6.43,6.43,0,0,0-1.48-.24,303.67,303.67,0,0,0-56-5.31q-10.73,0-21.46.74c-.49,0-1,.13-1.48.13l-3.94.37-.12-1.48-.37-4.56Z"/><g id="Group_80" data-name="Group 80"><path id="Path_950" data-name="Path 950" class="cls-4" d="M422.85,782.34h.86v-3.08h-3.08v3.08Zm3.94,0h3.08l-.12-3.08h-3.08Zm-9.12,0v-3.08h-3.09l-.12,3.08Zm15.29-.12c1,0,2.09-.12,3.08-.12l-.12-3.09c-1,0-2,.13-3.09.13Zm-21.46,0,.12-3.08c-1,0-2-.13-3.08-.13l-.12,3.09a25.42,25.42,0,0,1,3.08.12Zm27.62-.25c1,0,2.1-.12,3.09-.12l-.13-3.08c-1,0-2,.12-3.08.12Zm-33.66,0,.12-3.08c-1,0-2-.12-3.08-.12l-.12,3.08a27.57,27.57,0,0,1,3.08.12Zm39.83-.24c1-.13,2.1-.13,3.08-.25l-.25-3.08c-1,.12-2,.12-3.08.24Zm-46-.13.25-3.08c-1-.12-2-.12-3.08-.25l-.25,3.09c1,.12,2.1.12,3.08.24Zm52-.37c1-.12,2.1-.12,3.08-.24l-.24-3.09c-1,.13-2,.13-3.09.25Zm-58.2-.12.24-3.08c-1-.13-2-.13-3.08-.25l-.25,3.08a26.71,26.71,0,0,0,3.09.25Zm64.37-.37a26.46,26.46,0,0,1,3.08-.25l-.37-3.08a24.62,24.62,0,0,1-3.08.25Zm-70.41-.12.24-3.09-3.08-.37-.37,3.09,3.21.37Zm76.45-.62c1-.12,2-.25,3.08-.37l-.37-3.08-3,.37Zm-82.62-.12.37-3.09-3-.37-.37,3.09,3,.37Zm88.78-.62c1-.12,2-.25,3.09-.37l-.37-3.08-3,.37Zm-94.82-.12.37-3.09-3-.37-.5,3.09c1,.12,2.1.24,3.09.37Zm100.87-.62c1-.12,2-.25,3.08-.49l-.49-3c-1,.12-2,.37-3,.49Zm-106.92-.25.5-3c-1-.12-2-.37-3-.49l-.49,3c.86.12,1.84.37,2.95.49Zm113-.74c1-.12,2-.37,3.08-.49l-.49-3c-1,.12-2,.37-3,.49Zm-119-.24.5-3c-1-.13-2-.37-3-.5l-.5,3c.87.13,1.85.37,3,.5Zm125-.87c1-.24,2-.37,3-.61l-.62-3c-1,.24-2,.37-2.95.61Zm-131.08-.24.62-3c-1-.25-2-.37-3-.62l-.62,3a18,18,0,0,0,3,.62Zm137.12-.87c1-.24,2-.37,3-.61l-.61-3c-1,.24-2,.37-3,.61Zm-143.16-.24.61-3c-1-.25-2-.37-3-.62l-.61,3c.86.12,2,.37,3,.62Zm149.21-1a25.53,25.53,0,0,1,3-.62l-.62-3a25.93,25.93,0,0,1-3,.61Zm-155.25-.37.61-3a23.56,23.56,0,0,0-3-.61l-.74,3c1.11.25,2.1.5,3.09.62Zm161.17-1.11,3-.74-.74-3-3,.74Zm-167.09-.25.74-3-3-.74-.74,3c.86.25,2,.5,3,.74Zm173-1.11,3-.73-.74-3-3,.74Zm-179-.37.74-3-3-.74-.74,3,3,.73Zm185-1.23a24.84,24.84,0,0,0,3-.86l-.86-3a27.5,27.5,0,0,0-3,.86Zm-190.89-.37.87-3a25.39,25.39,0,0,1-3-.86l-.86,3a25.24,25.24,0,0,0,2.95.86Zm196.81-1.35c1-.25,2-.62,3-.87l-.86-3c-1,.25-2,.62-3,.87ZM321,767.55l.86-3c-1-.25-2-.62-3-.87l-.86,3c1,.25,2,.62,3,.87Zm208.52-1.36a28.55,28.55,0,0,0,3-1l-1-3a27.41,27.41,0,0,1-3,.87Zm-214.44-.37.86-3a19.62,19.62,0,0,1-2.83-1l-1,3c1,.37,2,.62,3,1Zm220.36-1.6c1-.37,2-.62,3-1l-1-2.84c-1,.37-2,.62-2.83,1Zm5.8-2a25.63,25.63,0,0,1,3-1l-1-2.84c-1,.37-2,.74-2.84,1Zm5.79-2.09c1-.37,2-.74,2.84-1.11l-1.11-2.84c-1,.37-1.85.74-2.84,1.11Zm5.67-2.22c1-.37,1.85-.74,2.84-1.11L554.42,754c-1,.37-1.85.74-2.84,1.11Zm5.8-2.22a26.89,26.89,0,0,0,2.84-1.24l-1.24-2.83a28.86,28.86,0,0,0-2.83,1.23Zm5.67-2.47c1-.37,1.85-.86,2.84-1.23l-1.23-2.84c-1,.37-1.85.87-2.84,1.24Zm5.55-2.47c1-.36,1.85-.86,2.84-1.23l-1.24-2.71c-.86.37-1.84.86-2.71,1.23Zm5.67-2.58c1-.5,1.85-.87,2.84-1.36l-1.36-2.71c-.86.49-1.85.86-2.71,1.35Zm5.55-2.59c.87-.5,1.85-.87,2.72-1.36l-1.36-2.71c-.86.49-1.85.86-2.71,1.35Zm5.43-2.84c.86-.49,1.85-1,2.71-1.48l-1.48-2.71a28.46,28.46,0,0,1-2.71,1.35Zm5.42-2.84c.87-.49,1.85-1,2.72-1.48L593,735.73c-.87.49-1.73,1-2.71,1.48Zm5.43-3c.86-.49,1.73-1,2.71-1.48l-1.48-2.71c-.86.49-1.72,1-2.71,1.48Zm5.3-3.08a28.79,28.79,0,0,0,2.59-1.6l-1.6-2.59a28,28,0,0,0-2.59,1.6Zm5.31-3.08c.86-.5,1.72-1.11,2.59-1.6l-1.61-2.59c-.86.49-1.72,1.11-2.59,1.6Zm5.17-3.33c.87-.49,1.73-1.11,2.59-1.6l-1.6-2.59c-.86.49-1.73,1.11-2.59,1.6Zm5.18-3.33c.87-.62,1.73-1.11,2.59-1.73L619,719.82c-.87.62-1.73,1.11-2.59,1.73Zm5.18-3.33c.87-.62,1.73-1.11,2.59-1.73l-1.72-2.46c-.87.61-1.73,1.11-2.47,1.72Zm5.06-3.58c.86-.61,1.73-1.23,2.47-1.72L629.15,713a29.15,29.15,0,0,1-2.47,1.73Zm4.93-3.57c.86-.62,1.6-1.24,2.47-1.85L634,709.34c-.87.62-1.61,1.23-2.47,1.85Zm4.93-3.7c.87-.62,1.61-1.23,2.47-1.85l-1.85-2.47c-.74.62-1.6,1.24-2.47,1.85Zm4.81-3.7c.87-.62,1.61-1.23,2.47-1.85l-1.85-2.34c-.74.61-1.6,1.23-2.34,1.85Zm4.81-3.82,2.35-2-2-2.34c-.74.62-1.6,1.23-2.34,2Zm4.81-4c.74-.62,1.6-1.36,2.34-2l-2-2.35-2.34,2Zm4.56-4c.74-.61,1.48-1.35,2.35-2l-2-2.22c-.74.62-1.48,1.36-2.22,2Zm4.69-4.07c.74-.74,1.48-1.35,2.22-2.09l-2.1-2.22c-.74.74-1.48,1.36-2.22,2.1Zm4.44-4.19c.74-.74,1.48-1.35,2.22-2.09l-2.1-2.22c-.74.74-1.48,1.35-2.22,2.09Zm4.44-4.19c.74-.74,1.48-1.48,2.22-2.1l-2.1-2.22c-.74.74-1.48,1.48-2.22,2.1Zm4.44-4.32c.74-.74,1.48-1.48,2.09-2.22l-2.22-2.09c-.74.74-1.48,1.48-2.09,2.22Zm4.31-4.31c.74-.74,1.36-1.48,2.1-2.22l-2.22-2.1c-.74.74-1.36,1.48-2.1,2.22Zm4.2-4.44c.74-.74,1.35-1.48,2.09-2.22l-2.22-2.1c-.74.74-1.35,1.48-2.09,2.22Zm4.07-4.56c.74-.74,1.35-1.48,2.09-2.35l-2.34-2c-.62.74-1.36,1.48-2,2.22ZM157.48,664l2.22-2.09c-.62-.74-1.36-1.48-2-2.22l-2.34,2C156.12,662.48,156.74,663.22,157.48,664Zm534.44-4.07c.61-.74,1.35-1.6,2-2.34l-2.34-2c-.62.74-1.36,1.48-2,2.34Zm-538.51-.49,2.34-2c-.62-.74-1.36-1.48-2-2.35l-2.35,2c.62.74,1.24,1.48,2,2.34ZM696,655.21l2-2.35-2.35-2c-.61.74-1.23,1.6-2,2.34Zm-546.52-.5,2.34-2c-.61-.74-1.35-1.6-2-2.34l-2.34,2c.61.74,1.23,1.6,2,2.34Zm550.35-4.19c.61-.74,1.23-1.6,2-2.34l-2.34-1.85c-.62.74-1.24,1.6-1.85,2.34Zm-554.3-.62,2.35-2c-.62-.74-1.24-1.6-1.85-2.34l-2.35,1.85a13.29,13.29,0,0,0,1.85,2.46Zm558.12-4.19c.62-.86,1.23-1.6,1.85-2.46L703,641.4c-.61.74-1.23,1.6-1.85,2.34Zm-561.94-.49,2.34-1.85c-.61-.74-1.23-1.6-1.84-2.34l-2.47,1.85A12,12,0,0,1,141.69,645.22Zm565.76-4.44c.62-.86,1.24-1.6,1.85-2.47l-2.46-1.85c-.62.87-1.24,1.61-1.85,2.47ZM138,640.29l2.47-1.85c-.62-.87-1.23-1.61-1.85-2.47l-2.47,1.85c.62.86,1.24,1.6,1.85,2.47ZM711,636c.62-.86,1.23-1.6,1.85-2.47l-2.47-1.72c-.61.86-1.23,1.6-1.72,2.46Zm-576.74-.62,2.47-1.85c-.62-.86-1.23-1.6-1.73-2.46l-2.46,1.72a18.78,18.78,0,0,0,1.72,2.59Zm580.31-4.44c.62-.86,1.24-1.72,1.73-2.46l-2.47-1.73c-.61.87-1.1,1.6-1.72,2.47Zm-583.88-.49,2.46-1.73c-.61-.86-1.11-1.6-1.72-2.46L129,628C129.48,628.69,130.1,629.56,130.72,630.42Zm587.46-4.56c.62-.86,1.11-1.73,1.73-2.59l-2.59-1.73c-.62.87-1.11,1.73-1.73,2.47Zm-590.92-.49,2.59-1.73c-.61-.86-1.11-1.73-1.72-2.59l-2.59,1.73c.49.86,1.11,1.72,1.72,2.59Zm594.25-4.57a26.68,26.68,0,0,0,1.6-2.59l-2.59-1.6c-.49.86-1.11,1.73-1.6,2.59Zm-597.7-.61,2.59-1.73c-.49-.86-1.11-1.73-1.6-2.59l-2.59,1.6c.49,1,1.11,1.85,1.6,2.72Zm601-4.57c.49-.86,1.11-1.72,1.6-2.59l-2.59-1.6c-.49.86-1.11,1.73-1.6,2.59ZM120.48,615l2.59-1.61c-.49-.86-1.11-1.72-1.6-2.59l-2.59,1.61c.49.86,1.11,1.72,1.6,2.59Zm607.57-4.57c.49-.86,1.11-1.72,1.6-2.58l-2.59-1.61a28.79,28.79,0,0,1-1.6,2.59Zm-610.77-.61,2.59-1.61a30.29,30.29,0,0,0-1.61-2.58l-2.59,1.6a13.28,13.28,0,0,1,1.61,2.59Zm614-4.56,1.48-2.59-2.59-1.48-1.48,2.59Zm-617.06-.74,2.59-1.48-1.48-2.59-2.71,1.48c.49.74,1.11,1.72,1.6,2.59Zm620-4.69c.49-.86,1-1.73,1.48-2.71L733,595.65c-.49.86-1,1.72-1.48,2.71Zm-623.1-.74,2.71-1.48c-.49-.86-1-1.73-1.48-2.71l-2.71,1.48c.49,1,1,1.85,1.48,2.71Zm626.06-4.56c.49-.87,1-1.85,1.48-2.72l-2.71-1.48c-.5.87-1,1.73-1.48,2.72Zm-629-.74,2.71-1.48c-.49-.87-1-1.85-1.48-2.72l-2.71,1.48c.49.87,1,1.73,1.48,2.72ZM740,589.11a28.46,28.46,0,0,0,1.35-2.71L738.65,585c-.49.87-.86,1.85-1.36,2.71Zm-634.7-.74L108,587a26.53,26.53,0,0,1-1.36-2.72L104,585.54A30.27,30.27,0,0,0,105.31,588.37Zm637.53-4.68c.5-.87.87-1.85,1.36-2.72l-2.71-1.35c-.5.86-.87,1.85-1.36,2.71Zm-640.24-.87,2.71-1.35c-.49-.87-.86-1.85-1.35-2.72l-2.71,1.36c.37.86.86,1.73,1.35,2.71Zm642.83-4.68a25.2,25.2,0,0,0,1.24-2.72L744,574.19c-.37.86-.86,1.85-1.23,2.71Zm-645.54-.87,2.71-1.35a27.18,27.18,0,0,1-1.23-2.72l-2.71,1.24a28.86,28.86,0,0,0,1.23,2.83ZM748,572.59c.37-1,.87-1.85,1.24-2.84l-2.84-1.23c-.37.86-.86,1.85-1.23,2.71ZM97.3,571.72l2.84-1.23c-.37-1-.87-1.85-1.24-2.84l-2.83,1.24c.37.86.86,1.85,1.23,2.83ZM750.49,567c.37-1,.86-1.85,1.23-2.84L748.89,563a26.89,26.89,0,0,1-1.24,2.84Zm-655.66-1,2.84-1.23A29,29,0,0,0,96.44,562l-2.84,1.24a28.86,28.86,0,0,1,1.23,2.83Zm658-4.68c.37-1,.74-1.85,1.11-2.84l-2.83-1.11c-.37,1-.74,1.85-1.11,2.84Zm-660.34-1,2.84-1.11c-.37-1-.74-1.85-1.11-2.84l-2.84,1.11C91.75,558.41,92.12,559.39,92.49,560.38Zm662.68-4.69c.37-1,.74-1.85,1.11-2.83l-2.83-1.11c-.37,1-.74,1.85-1.11,2.83Zm-665-1L93,553.6c-.37-1-.74-1.85-1.11-2.84L89,551.87c.37.86.74,1.85,1.11,2.84ZM757.39,550c.37-1,.74-2,1.11-2.84l-2.83-1c-.37,1-.74,1.85-1.11,2.83ZM88.05,548.91l2.84-1.11a26.47,26.47,0,0,1-1-2.83l-2.84,1a28.55,28.55,0,0,0,1,3Zm671.44-4.68c.37-1,.62-2,1-2.84l-2.84-1c-.37,1-.62,2-1,2.84ZM86,543.12l2.84-1c-.37-1-.62-2-1-2.84l-2.83,1C85.21,541.14,85.58,542.13,86,543.12Zm675.51-4.69c.37-1,.62-2,1-3l-3-1c-.37,1-.62,2-1,2.84ZM84,537.2l3-1c-.37-1-.62-2-1-3l-3,1c.37,1.11.62,2.09,1,3Zm679.33-4.57c.25-1,.62-2,.87-3l-3-.86c-.25,1-.62,2-.87,3ZM82.13,531.4l3-.86c-.25-1-.62-2-.86-3l-3,.86a27.5,27.5,0,0,0,.86,3Zm683-4.69c.25-1,.62-2,.87-3l-3-.87c-.25,1-.62,2-.87,3ZM80.28,525.48l3-.86c-.25-1-.62-2-.86-3l-3,.86a26,26,0,0,1,.86,3Zm686.49-4.68a24.84,24.84,0,0,1,.86-3l-3-.74c-.25,1-.49,2-.74,3ZM78.68,519.56l3-.74-.74-3-3,.74a24.16,24.16,0,0,0,.74,3Zm689.69-4.68c.25-1,.49-2,.74-3l-3-.74c-.25,1-.49,2-.74,3ZM77.08,513.64l3-.74-.74-3-3,.74.74,3ZM769.85,509c.25-1,.49-2,.74-3l-3-.74c-.25,1-.49,2-.74,3ZM75.6,507.72l3-.74-.74-3-3,.61c.24,1.11.49,2.1.74,3.08Zm695.61-4.8a26.38,26.38,0,0,0,.61-3l-3-.62c-.24,1-.37,2-.61,3Zm-697-1.24,3-.61c-.25-1-.37-2-.62-3l-3,.61c.25,1,.37,2,.62,3ZM772.56,497c.25-1,.37-2,.62-3l-3-.62c-.25,1-.37,2-.62,3ZM73,495.76l3-.61c-.25-1-.37-2-.62-3l-3,.61C72.64,493.67,72.76,494.65,73,495.76ZM773.67,491a23.13,23.13,0,0,0,.49-3l-2.95-.49c-.13,1-.37,2-.5,3ZM71.9,489.72l3-.49c-.13-1-.37-2-.5-3l-3,.49C71.53,487.62,71.65,488.73,71.9,489.72Zm702.88-4.81c.12-1,.37-2,.49-3.08l-2.95-.49c-.13,1-.37,2-.5,3Zm-704-1.23,3-.49c-.13-1-.37-2-.5-3l-3,.49a18.75,18.75,0,0,1,.5,3Zm704.85-4.81c.13-1,.25-2,.5-3.08l-3.08-.37a25.77,25.77,0,0,1-.5,3ZM69.92,477.51l3-.49-.37-3-3.08.49C69.55,475.54,69.8,476.53,69.92,477.51Zm706.59-4.81c.12-1,.24-2,.37-3.08l-3.08-.37c-.13,1-.25,2-.37,3ZM69.06,471.47l3.08-.37-.37-3-3.08.25c.12,1.11.25,2.09.37,3.08Zm708.19-4.81c.12-1,.24-2,.37-3.08l-3.09-.37c-.12,1-.24,2-.37,3.08ZM68.32,465.43l3.08-.37c-.12-1-.24-2-.37-3.08l-3.08.37c.12,1,.25,2.09.37,3.08ZM778,460.5a26.79,26.79,0,0,0,.24-3.09l-3.08-.24c-.12,1-.12,2-.25,3.08ZM67.7,459.26l3.09-.24a23,23,0,0,1-.25-3.09l-3.08.25a24.52,24.52,0,0,0,.24,3.08Zm710.78-4.81c.12-1,.12-2.09.25-3.08l-3.09-.25c-.12,1-.12,2-.24,3.09ZM67.21,453.22l3.08-.25c-.12-1-.12-2-.24-3.08l-3.09.25C67.09,451.12,67.09,452.11,67.21,453.22ZM779,448.29a24.57,24.57,0,0,0,.13-3.09l-3.09-.12c0,1-.12,2-.12,3.08Zm.25-6c0-1,.12-2.1.12-3.09l-3.08-.12c0,1-.12,2-.12,3.08Zm.25-6.17a26.35,26.35,0,0,1,.12-3.08l-3.08-.13a25.54,25.54,0,0,1-.13,3.09Zm.12-6.17v-3.08h-3.08v3.08Zm-3-6h3.08v-3.08h-3.08a26.35,26.35,0,0,0,0,3.08Zm-.12-6.16,3.08-.13a26.52,26.52,0,0,0-.12-3.08l-3.09.12c0,1.11.13,2.1.13,3.09Zm-.25-6,3.08-.12c0-1-.12-2.1-.12-3.08l-3.08.12a27.57,27.57,0,0,1,.12,3.08Zm-.25-6,3.09-.12c0-1-.13-2.1-.13-3.08l-3.08.24c0,.87.12,2,.12,3Zm-.37-6,3.09-.25c-.13-1-.13-2.09-.25-3.08l-3.08.25c.12,1,.12,2,.24,3.08Zm-.49-6.17,3.08-.24a26.79,26.79,0,0,1-.24-3.09l-3.09.25a24.46,24.46,0,0,0,.25,3.08Zm-.62-6,3.09-.37c-.13-1-.25-2-.37-3.08l-3.09.37c.13,1.11.25,2.09.37,3.08Zm-.73-6,3.08-.37c-.13-1-.25-2-.37-3.08l-3.08.37c.12,1.11.24,2.09.37,3.08Zm-.74-6,3.08-.37c-.13-1-.25-2-.5-3.09l-2.95.5a23.24,23.24,0,0,0,.37,3Zm-1-5.92,3-.5c-.13-1-.37-2-.5-3.08l-2.95.49a27.55,27.55,0,0,1,.49,3.09Zm-1-6,3-.5c-.12-1-.37-2-.49-3l-3,.62c.12.86.37,1.85.49,2.84ZM770,357.41l3-.62c-.24-1-.37-2-.61-3l-3,.62a18.1,18.1,0,0,1,.61,3Zm-1.23-6.05,3-.61c-.25-1-.37-2-.62-3l-3,.61a24.37,24.37,0,0,1,.62,3Zm-1.23-5.92,3-.74c-.25-1-.5-2-.74-2.95l-3,.74c.24,1,.49,2,.74,2.95ZM766,339.53l3-.74c-.25-1-.5-2-.74-3l-3,.74c.24,1,.49,2,.74,3Zm-1.48-5.92,3-.74a26.92,26.92,0,0,0-.87-3l-3,.86c.25,1,.62,1.85.87,2.84Zm-1.61-5.8,3-.86c-.24-1-.61-2-.86-3l-3,.86a27.5,27.5,0,0,0,.86,3ZM761.22,322l3-.87c-.25-1-.62-2-.87-3l-3,.87a28.27,28.27,0,0,0,.87,3Zm-1.85-5.92,3-1c-.37-1-.62-2-1-3l-2.84,1a12.06,12.06,0,0,0,.87,3Zm-2-5.8,2.84-1c-.37-1-.62-2-1-3l-2.83,1a16,16,0,0,0,1,3Zm-2.09-5.67,2.83-1c-.37-1-.74-2-1.11-2.83l-2.83,1.11a13.64,13.64,0,0,1,1.11,2.71Zm-2.1-5.8,2.84-1.11c-.37-1-.74-2-1.11-2.83L752.09,296c.37,1,.74,2,1.11,2.83ZM751,293.16l2.84-1.11c-.37-1-.74-1.85-1.11-2.84l-2.84,1.11c.37,1,.74,2,1.11,2.84Zm-2.34-5.67,2.84-1.24c-.37-1-.87-1.85-1.24-2.83l-2.83,1.23c.37,1,.86,2,1.23,2.84Zm-2.47-5.55,2.84-1.23c-.37-1-.86-1.85-1.23-2.84l-2.84,1.23c.37,1,.86,2,1.23,2.84Zm-2.46-5.55,2.71-1.23c-.49-1-.86-1.85-1.36-2.84l-2.71,1.36c.49.86.86,1.85,1.36,2.71ZM741,270.84l2.72-1.36c-.5-.86-.87-1.85-1.36-2.71l-2.71,1.36c.49,1,1,1.85,1.35,2.71Zm-2.71-5.43,2.71-1.35a29.69,29.69,0,0,1-1.35-2.71l-2.72,1.35c.5,1,1,1.85,1.36,2.71ZM735.57,260l2.71-1.48c-.49-.86-1-1.85-1.48-2.71l-2.71,1.48c.49,1,1,1.85,1.48,2.71Zm-3-5.3,2.71-1.48c-.49-.87-1-1.85-1.48-2.72L731.13,252c.49.87,1,1.85,1.48,2.72Zm-3-5.31,2.59-1.48c-.49-.86-1-1.72-1.6-2.71l-2.59,1.6c.49.87,1.11,1.73,1.6,2.59Zm-3.08-5.3,2.59-1.6c-.5-.87-1.11-1.73-1.61-2.59l-2.59,1.6a30.43,30.43,0,0,0,1.61,2.59Zm-3.21-5.18,2.59-1.6c-.49-.86-1.11-1.73-1.6-2.59l-2.59,1.6c.49.87,1.11,1.73,1.6,2.59Zm-3.21-5.18,2.59-1.6c-.61-.86-1.11-1.73-1.72-2.59l-2.59,1.73c.61.86,1.11,1.6,1.72,2.46Zm-3.45-5.05,2.59-1.73c-.62-.86-1.11-1.73-1.73-2.59l-2.46,1.73c.49.86,1.11,1.72,1.6,2.59Zm-3.45-5.06,2.46-1.73c-.61-.86-1.23-1.72-1.72-2.46l-2.47,1.72c.62.87,1.24,1.73,1.73,2.47Zm-3.45-4.93,2.46-1.85c-.61-.86-1.23-1.6-1.85-2.47L708,216.21c.61.87,1.23,1.61,1.85,2.47Zm-3.58-4.93,2.47-1.85c-.62-.87-1.24-1.61-1.85-2.47l-2.47,1.85c.62.86,1.23,1.73,1.85,2.47Zm-3.7-4.81,2.47-1.85c-.62-.87-1.24-1.61-1.85-2.47l-2.35,1.85a18.17,18.17,0,0,0,1.73,2.47Zm-3.82-4.81,2.34-2c-.62-.74-1.23-1.6-2-2.34l-2.35,2,2,2.35Zm-3.83-4.69,2.35-2-2-2.34-2.34,2C693.52,197.84,694.26,198.7,694.87,199.44Zm-3.94-4.56,2.34-2-2-2.35-2.34,2C689.57,193.28,690.31,194,690.93,194.88Zm-4.07-4.69,2.22-2c-.74-.74-1.36-1.48-2.1-2.34L684.76,188c.74.74,1.48,1.48,2.1,2.22Zm-4.07-4.44,2.22-2.09c-.74-.74-1.36-1.48-2.1-2.22l-2.22,2.09c.74.74,1.48,1.48,2.1,2.22ZM581.55,109.42l1.36-2.71c-.87-.49-1.85-.86-2.72-1.36l-1.35,2.72C579.7,108.44,580.56,108.93,581.55,109.42Zm-5.43-2.71,1.36-2.71c-.86-.5-1.85-.87-2.71-1.36l-1.36,2.71c.86.5,1.73.87,2.71,1.36Zm-5.55-2.59,1.24-2.84c-1-.37-1.85-.86-2.84-1.23l-1.23,2.84c1,.37,2,.86,2.83,1.23ZM565,101.65l1.23-2.83c-1-.37-1.85-.86-2.84-1.23l-1.23,2.83c1,.37,2,.86,2.84,1.23Zm-5.55-2.34,1.23-2.83c-1-.37-1.85-.74-2.84-1.11l-1.11,2.83a13,13,0,0,1,2.72,1.11ZM553.93,97,555,94.13c-1-.37-1.85-.74-2.84-1.11l-1.11,2.84c.86.37,1.85.74,2.84,1.11Zm-5.67-2.22,1.11-2.84c-1-.37-2-.74-2.84-1.11l-1.11,2.84c.86.37,1.85.74,2.84,1.11Zm-5.8-2.1,1-2.83c-1-.37-2-.74-2.84-1l-1,2.84a18.23,18.23,0,0,1,2.84,1Zm-5.67-2,1-2.84c-1-.37-2-.61-3-1l-1,3a13.39,13.39,0,0,1,3,.86Zm-5.8-2,1-3a28.27,28.27,0,0,0-3-.87l-.86,3c.86.25,1.84.62,2.83.87ZM525.2,87l.86-3c-1-.25-2-.62-3-.86l-.86,3a26,26,0,0,1,3,.86Zm-5.8-1.73.86-3a26,26,0,0,1-3-.86l-.86,3c1,.25,2,.62,3,.86Zm-5.92-1.6.74-3-3-.74-.74,3,3,.74Zm-5.92-1.48.74-3-3-.74-.74,3,3,.74Zm-5.92-1.48.74-3a25.49,25.49,0,0,0-3-.61l-.61,2.95c.86.25,1.85.37,2.83.62Zm-5.92-1.23.62-3c-1-.25-2-.37-3-.62l-.62,3a23.6,23.6,0,0,1,3,.62Zm-5.92-1.23.62-3c-1-.25-2-.37-3-.62l-.49,3c.86.25,1.85.37,2.83.62Zm-6-1.11.5-3c-1-.13-2-.37-3.09-.5l-.49,3c1.11.13,2.1.37,3.08.5Zm-5.92-1,.5-3c-1-.12-2-.37-3.09-.49l-.49,3.08c1,.12,2,.25,3.08.37Zm-6-.86.37-3.09-3.08-.37-.37,3.09c1,.12,2.09.24,3.08.37Zm-6-.74.37-3.09-3.08-.37-.37,3.09c1,.12,2.09.24,3.08.37Zm-6-.74.37-3.09a24.84,24.84,0,0,0-3.09-.24l-.37,3.08a24.75,24.75,0,0,1,3.09.25Zm-6.05-.62.25-3.08c-1-.13-2.1-.13-3.08-.25l-.25,3.08a22.86,22.86,0,0,0,3.08.25ZM396,72.92c1-.12,2-.12,3.09-.24l-.25-3.09c-1,.13-2.1.13-3.08.25Zm51.67-.12.25-3.08c-1-.13-2.1-.13-3.08-.25l-.25,3.08c1,.13,2,.13,3.08.25ZM402,72.55c1,0,2-.12,3.08-.12l-.25-3.08c-1,0-2.09.12-3.08.12Zm39.46-.12.12-3.08c-1,0-2.1-.13-3.08-.13l-.13,3.09a25.59,25.59,0,0,1,3.09.12Zm-33.42-.25c1,0,2-.12,3.08-.12l-.12-3c-1,0-2.1.12-3.09.12Zm27.37,0,.13-3.08c-1,0-2.1-.12-3.09-.12l-.12,3.08a25.34,25.34,0,0,1,3.08.12Zm-21.21-.12h3.09V69a26.6,26.6,0,0,0-3.09.12Zm15.17-.12V68.85H426.3v3.09Zm-9.12,0h3V68.85h-3.09Z"/></g><g id="Group_81" data-name="Group 81"><path id="Path_951" data-name="Path 951" class="cls-4" d="M291.72,823.19l1-3c-1-.37-2-.61-2.84-1l-1,2.83A10.83,10.83,0,0,0,291.72,823.19Zm-5.79-1.85,1-2.83c-1-.37-2-.62-2.83-1l-1,2.84c.86.24,1.85.61,2.84,1Zm-5.8-2.09,1-2.84a26.63,26.63,0,0,0-2.84-1l-1.11,2.84a27.78,27.78,0,0,1,3,1Zm-5.79-2.1,1.11-2.84c-1-.37-1.85-.74-2.84-1.11L271.5,816c1,.37,2,.74,2.84,1.11Zm-5.68-2.22,1.11-2.84c-1-.37-1.85-.73-2.83-1.1l-1.11,2.83c1,.37,1.85.74,2.83,1.11ZM263,812.59l1.11-2.84c-1-.37-1.85-.74-2.84-1.11L260,811.48c1.11.37,2,.74,3,1.11Zm-5.67-2.34,1.23-2.84c-1-.37-1.85-.86-2.83-1.23L254.48,809a18.73,18.73,0,0,1,2.84,1.24Zm-5.55-2.47,1.23-2.84c-.86-.37-1.85-.86-2.71-1.23l-1.23,2.84A27,27,0,0,1,251.77,807.78Zm-5.55-2.59,1.23-2.71c-.86-.37-1.85-.87-2.71-1.24L243.38,804c1,.37,2,.86,2.84,1.23Zm353.54,0c1-.49,1.85-.86,2.84-1.36l-1.36-2.71c-.86.49-1.85.86-2.71,1.36ZM240.67,802.6l1.36-2.71c-.87-.5-1.85-.87-2.71-1.36L238,801.24c.86.5,1.85.87,2.71,1.36Zm364.64-.12c.86-.5,1.85-.87,2.71-1.36l-1.35-2.71c-.87.49-1.85.86-2.72,1.35Zm-370.06-2.59,1.35-2.72c-.86-.49-1.85-.86-2.71-1.35l-1.36,2.71c.87.49,1.73.86,2.72,1.36Zm375.48-.13a28.61,28.61,0,0,1,2.72-1.35l-1.36-2.72a26.39,26.39,0,0,1-2.71,1.36Zm-380.91-2.59,1.36-2.71a28.74,28.74,0,0,0-2.72-1.36L227,795.82a30.43,30.43,0,0,1,2.84,1.35Zm386.46-.24c.87-.5,1.85-1,2.72-1.48l-1.48-2.72c-.87.5-1.85,1-2.72,1.48Zm-391.89-2.72,1.48-2.71c-.86-.49-1.72-1-2.71-1.48l-1.48,2.71c.86.5,1.85,1,2.71,1.48Zm397.32-.12c.86-.49,1.85-1,2.71-1.48l-1.48-2.71c-.86.49-1.72,1-2.71,1.48ZM219,791.25l1.48-2.71-2.59-1.48-1.48,2.72,2.59,1.47Zm408-.12c.86-.49,1.73-1,2.71-1.48l-1.48-2.71c-.86.49-1.72,1-2.71,1.48ZM213.67,788.3l1.48-2.59-2.59-1.48L211,786.82c1,.49,1.85,1,2.72,1.48Zm418.77-.25c.86-.49,1.72-1,2.71-1.6l-1.6-2.59L631,785.34Zm-423.95-2.84,1.6-2.59a28,28,0,0,1-2.59-1.6l-1.6,2.59C206.64,784.1,207.62,784.72,208.49,785.21ZM637.74,785c.86-.5,1.73-1.11,2.59-1.61l-1.6-2.59c-.87.5-1.73,1.11-2.59,1.61Zm-434.56-3,1.61-2.59c-.87-.5-1.73-1.11-2.59-1.61l-1.61,2.59c.87.5,1.73,1.11,2.59,1.61Zm439.74-.25c.86-.49,1.73-1.11,2.59-1.6l-1.6-2.59c-.87.49-1.73,1.11-2.59,1.6ZM198,778.8l1.6-2.59c-.86-.49-1.73-1.11-2.59-1.6l-1.6,2.59a29.34,29.34,0,0,1,2.59,1.6Zm450.09-.25c.86-.49,1.72-1.11,2.59-1.6L649,774.36c-.86.49-1.73,1.11-2.59,1.6ZM193,775.47l1.73-2.59a16.77,16.77,0,0,1-2.47-1.73l-1.73,2.59C191.22,774.36,192.09,774.85,193,775.47Zm460.33-.37c.86-.62,1.72-1.11,2.59-1.73l-1.73-2.59c-.86.62-1.73,1.11-2.59,1.73ZM187.77,772l1.73-2.47c-.87-.61-1.73-1.11-2.47-1.72l-1.73,2.46c.87.62,1.73,1.11,2.47,1.73Zm470.56-.25c.87-.62,1.73-1.11,2.59-1.72l-1.72-2.47c-.87.62-1.73,1.11-2.47,1.73Zm-475.49-3.2,1.72-2.47c-.86-.62-1.6-1.11-2.46-1.73l-1.73,2.47C181.11,767.33,182,768,182.84,768.57Zm480.55-.37c.86-.62,1.73-1.24,2.47-1.73L664.13,764a27,27,0,0,1-2.47,1.73ZM177.78,765l1.85-2.47c-.86-.61-1.6-1.23-2.46-1.85l-1.85,2.47c.86.62,1.6,1.23,2.46,1.85Zm490.66-.37c.87-.62,1.61-1.23,2.47-1.85l-1.85-2.47c-.86.62-1.6,1.24-2.46,1.85Zm-495.59-3.21L174.7,759c-.86-.62-1.6-1.24-2.47-1.85l-1.85,2.46c.87.62,1.73,1.24,2.47,1.85ZM673.38,761c.86-.61,1.6-1.23,2.46-1.85L674,756.73c-.86.61-1.6,1.23-2.46,1.85ZM168,757.71l1.85-2.46c-.86-.62-1.6-1.24-2.34-1.85l-1.85,2.46A18.2,18.2,0,0,0,168,757.71Zm510.27-.37c.86-.61,1.6-1.23,2.47-1.85L678.93,753c-.74.61-1.61,1.23-2.47,1.85Zm-515.2-3.45,1.85-2.34c-.74-.62-1.61-1.24-2.35-1.85l-2,2.34c.86.62,1.73,1.23,2.47,1.85Zm520-.37c.74-.62,1.6-1.23,2.34-2l-2-2.34c-.74.61-1.6,1.23-2.34,1.84Zm-524.7-3.45,2-2.34c-.74-.62-1.6-1.24-2.34-2l-2,2.35a18.48,18.48,0,0,0,2.34,2Zm529.39-.37c.73-.62,1.6-1.36,2.34-2l-2-2.35-2.35,2Zm-534.2-3.58,2-2.34c-.74-.62-1.61-1.36-2.35-2l-2,2.34c.86.74,1.6,1.36,2.34,2Zm539-.37c.74-.61,1.61-1.35,2.35-2l-2-2.34c-.74.61-1.6,1.35-2.34,2Zm-543.56-3.57,2-2.35c-.74-.61-1.48-1.35-2.34-2l-2,2.34c.74.62,1.48,1.36,2.34,2Zm548.13-.37,2.34-2-2-2.34c-.74.62-1.48,1.36-2.35,2Zm-552.82-3.7,2-2.22c-.74-.62-1.48-1.36-2.22-2l-2.1,2.22c.86.62,1.6,1.36,2.34,2Zm557.5-.37c.74-.74,1.48-1.36,2.22-2.1L702,733.42c-.74.74-1.48,1.36-2.22,2.1ZM139.92,734l2.1-2.22c-.74-.74-1.48-1.36-2.22-2.1l-2.09,2.22A18,18,0,0,0,139.92,734Zm566.51-.5c.74-.74,1.48-1.35,2.22-2.09l-2.1-2.22c-.74.74-1.48,1.35-2.22,2.09Zm-571.07-3.7,2.1-2.21c-.74-.74-1.48-1.36-2.22-2.1l-2.1,2.22c.74.74,1.48,1.36,2.22,2.09Zm575.5-.36c.74-.74,1.48-1.36,2.22-2.1L711,725.16c-.74.74-1.48,1.36-2.22,2.1Zm-579.94-3.83,2.1-2.22c-.74-.74-1.48-1.35-2.22-2.09l-2.1,2.22c.74.61,1.48,1.35,2.22,2.09Zm584.38-.49c.74-.74,1.48-1.48,2.22-2.1l-2.09-2.22c-.74.74-1.48,1.48-2.22,2.1Zm-588.69-3.82,2.22-2.1c-.74-.74-1.48-1.48-2.1-2.22l-2.22,2.1C125.13,719.86,125.87,720.6,126.61,721.34Zm593-.5c.74-.74,1.48-1.48,2.1-2.22l-2.22-2.09c-.74.74-1.48,1.48-2.1,2.22ZM122.29,716.9l2.22-2.1c-.74-.74-1.36-1.48-2.1-2.22l-2.22,2.1c.74.74,1.36,1.48,2.1,2.22Zm601.65-.37c.74-.74,1.35-1.48,2.09-2.22l-2.22-2.1c-.74.74-1.35,1.48-2.09,2.22ZM118.1,712.46l2.22-2.1c-.74-.74-1.36-1.48-2.1-2.22l-2.22,2.1c.62.74,1.36,1.48,2.1,2.22Zm610-.37c.74-.74,1.35-1.48,2.09-2.22l-2.21-2.1c-.74.74-1.36,1.48-2.1,2.22ZM113.91,708l2.22-2.1c-.74-.74-1.36-1.48-2.1-2.22l-2.22,2.1c.74.74,1.36,1.48,2.1,2.22Zm618.41-.49c.74-.74,1.36-1.48,2.1-2.22l-2.22-2.1c-.62.74-1.36,1.48-2.1,2.22Zm4.07-4.57c.62-.74,1.36-1.48,2-2.34l-2.34-2c-.62.74-1.36,1.48-2,2.34Zm4.07-4.56c.62-.74,1.36-1.6,2-2.34l-2.34-2c-.62.74-1.36,1.61-2,2.35Zm3.95-4.69c.61-.74,1.35-1.6,2-2.34l-2.34-2c-.62.74-1.24,1.6-2,2.34Zm3.82-4.8c.62-.74,1.23-1.61,2-2.35l-2.34-1.85c-.62.74-1.23,1.61-1.85,2.35Zm3.82-4.69c.62-.86,1.23-1.6,1.85-2.47l-2.47-1.85c-.61.74-1.23,1.61-1.85,2.35Zm3.82-4.93c.62-.87,1.24-1.61,1.85-2.47L755.26,675c-.62.86-1.24,1.6-1.85,2.47Zm3.7-4.81c.62-.87,1.24-1.61,1.85-2.47L759,670.16c-.62.86-1.24,1.6-1.85,2.47Zm3.58-4.94c.62-.86,1.23-1.6,1.73-2.46l-2.47-1.73c-.62.87-1.11,1.61-1.73,2.47Zm3.58-5c.61-.86,1.11-1.73,1.72-2.47L766,660.3c-.62.86-1.11,1.72-1.73,2.46Zm3.45-5.06c.61-.86,1.11-1.72,1.72-2.59l-2.58-1.72c-.62.86-1.11,1.72-1.73,2.46Zm3.33-5c.61-.87,1.11-1.73,1.6-2.59l-2.59-1.61c-.49.87-1.11,1.73-1.6,2.59Zm3.33-5.18c.49-.87,1.11-1.73,1.6-2.59l-2.59-1.6c-.49.86-1.11,1.72-1.6,2.59ZM780,644c.5-.86,1.11-1.73,1.61-2.59l-2.59-1.6c-.5.86-1.11,1.72-1.61,2.59Zm3.21-5.18a30.27,30.27,0,0,1,1.6-2.59l-2.59-1.6-1.48,2.59Zm3.08-5.3c.5-.87,1-1.73,1.48-2.72l-2.71-1.48c-.49.87-1,1.73-1.48,2.59Zm3-5.31c.5-.86,1-1.72,1.48-2.71L788.06,624c-.49.87-1,1.73-1.48,2.72Zm3-5.42c.49-.86,1-1.85,1.48-2.71L791,618.62c-.5.86-1,1.72-1.48,2.71Zm2.84-5.43a28.46,28.46,0,0,0,1.35-2.71l-2.71-1.36c-.49.87-.86,1.85-1.36,2.72ZM797.8,612c.49-.87.86-1.85,1.36-2.72l-2.72-1.35c-.49.86-.86,1.85-1.35,2.71Zm2.71-5.55c.5-.86.87-1.85,1.36-2.71l-2.71-1.36c-.5.86-.87,1.85-1.36,2.71ZM803.1,601c.37-.86.87-1.85,1.24-2.83l-2.84-1.24c-.37.87-.86,1.85-1.23,2.72Zm2.59-5.67c.37-1,.87-1.85,1.24-2.84l-2.84-1.23c-.37,1-.86,1.85-1.23,2.71Zm2.35-5.55a27.85,27.85,0,0,1,1.23-2.83l-2.84-1.11a29.94,29.94,0,0,1-1.23,2.83Zm2.34-5.67c.37-1,.74-1.85,1.11-2.84l-2.84-1.11c-.37,1-.74,1.85-1.11,2.84Zm2.34-5.67c.37-1,.74-1.85,1.11-2.84L811,574.47c-.37,1-.73,1.85-1.1,2.84Zm2.22-5.68c.37-1,.74-2,1.11-2.83l-2.84-1.11c-.37,1-.74,1.85-1.11,2.83ZM817,567c.37-1,.74-2,1-2.84l-2.83-1c-.37,1-.62,2-1,2.83Zm2-5.8c.37-1,.62-2,1-3l-3-1c-.37,1-.62,2-1,2.83Zm2-5.79c.37-1,.62-2,1-3l-3-.87a19.34,19.34,0,0,1-1,2.84Zm1.85-5.8c.25-1,.62-2,.87-3l-3-.86c-.25,1-.62,2-.87,3Zm1.73-5.92c.25-1,.62-2,.86-3l-3-.86c-.24,1-.61,2-.86,3Zm1.73-5.92a26,26,0,0,1,.86-3l-3-.74a26.86,26.86,0,0,1-.86,3ZM5.64,459.3l3.08-.25c-.12-1-.12-2-.25-3.08l-3.08.24C5.51,457.2,5.51,458.31,5.64,459.3Zm-.5-6.17,3.09-.25c-.13-1-.13-2-.25-3.08l-3.08.12C5,451.16,5.14,452.14,5.14,453.13Zm-.37-6L7.86,447c0-1-.13-2-.13-3.08L4.65,444a25.34,25.34,0,0,1,.12,3.08Zm-.24-6.17,3.08-.12c0-1-.12-2-.12-3.08l-3.09.12A24.49,24.49,0,0,1,4.53,440.92Zm-.13-6.16,3.09-.13v-3.08H4.4a28.56,28.56,0,0,0,0,3.21Zm-.12-6.05H7.36v-3.33H4.28v3.33Zm3.08-6.41v-3.08H4.28v3.08Zm.13-6.16a27.65,27.65,0,0,1,.12-3.09l-3.08-.12A24.33,24.33,0,0,1,4.4,416Zm.12-6.05c0-1,.12-2,.12-3.08l-3.08-.12c0,1-.12,2-.12,3.08Zm.25-6c0-1,.12-2,.12-3.08l-3.08-.12c0,1-.13,2.09-.13,3.08Zm.37-6c.12-1,.12-2,.24-3.08l-3.08-.25c-.12,1-.12,2.1-.25,3.08Zm.49-6c.12-1,.12-2,.25-3.09l-3.09-.24c-.12,1-.12,2.09-.24,3.08Zm.49-6.17a22.86,22.86,0,0,0,.25-3.08l-3.08-.37a22.86,22.86,0,0,0-.25,3.08Zm.62-6c.12-1,.25-2,.37-3.08l-3.08-.37c-.13,1-.25,2-.37,3.08Zm.74-6c.12-1,.25-2,.37-3.09l-3.08-.37c-.13,1-.25,2-.37,3.09Zm.74-6.05.37-3-3-.49c-.12,1-.25,2-.49,3.08Zm.86-6c.13-1,.37-2,.5-3l-3-.49c-.13,1-.37,2-.5,3.08Zm1-5.92c.12-1,.37-2,.49-3l-3-.61c-.12,1-.37,2-.49,3.08Zm1.11-6a24,24,0,0,1,.62-3l-3-.62c-.25,1-.37,2-.62,3Zm1.11-5.92c.25-1,.37-2,.62-3l-3-.61c-.25,1-.37,2-.62,2.95Zm1.23-6c.25-1,.37-2,.62-3l-3-.62a26.44,26.44,0,0,0-.62,3ZM18,331.79l.74-3-3-.74-.74,3Zm1.35-5.92.74-3-3-.74-.73,3ZM20.8,320l.74-3-3-.74-.74,3Zm1.61-5.79a24.84,24.84,0,0,1,.86-3l-3-.87a26.86,26.86,0,0,1-.86,3Zm1.72-5.92c.25-1,.62-2,.87-3l-3-.87c-.25,1-.62,2-.87,3Zm1.73-5.8c.25-1,.62-2,.86-3l-3-1a26.86,26.86,0,0,0-.86,3Zm1.85-5.79c.37-1,.62-2,1-2.84l-2.84-1c-.37,1-.62,2-1,3Zm2-5.8c.37-1,.62-2,1-2.84l-2.84-1c-.37,1-.61,2-1,3Zm2-5.67a24.5,24.5,0,0,0,1-2.84l-2.83-1.11c-.37,1-.74,2-1,2.84Zm2.09-5.8c.37-1,.74-1.85,1.11-2.83L32,275.44c-.37,1-.74,1.85-1.11,2.83ZM36,273.71c.37-1,.74-1.85,1.11-2.84l-2.83-1.11c-.37,1-.74,1.85-1.11,2.84ZM38.19,268c.37-1,.74-1.85,1.11-2.84L36.47,264c-.37,1-.74,1.85-1.11,2.83Zm2.34-5.55a26.89,26.89,0,0,1,1.24-2.84l-2.84-1.23c-.37,1-.86,1.85-1.23,2.84ZM43,256.94c.37-.86.86-1.85,1.23-2.71L41.4,253c-.37,1-.87,1.85-1.24,2.84Zm2.47-5.55c.37-.86.86-1.85,1.23-2.71L44,247.32A25.06,25.06,0,0,0,42.75,250ZM48.06,246c.49-.86.86-1.85,1.35-2.71l-2.71-1.36c-.49.87-.86,1.85-1.36,2.72Zm2.71-5.42c.49-.86.86-1.85,1.36-2.71l-2.72-1.36c-.49.86-.86,1.85-1.35,2.71Zm2.71-5.43a26.39,26.39,0,0,0,1.36-2.71l-2.71-1.48a26.39,26.39,0,0,0-1.36,2.71Zm2.84-5.42c.49-.87,1-1.73,1.48-2.72l-2.71-1.48c-.5.87-1,1.85-1.48,2.72Zm2.83-5.31,1.48-2.59-2.71-1.47c-.49.86-1,1.72-1.48,2.71Zm3.09-5.3,1.48-2.59L61.13,215l-1.48,2.59Zm3-5.18a29.34,29.34,0,0,1,1.6-2.59l-2.59-1.6c-.49.86-1.11,1.73-1.6,2.59Zm3.2-5.18c.5-.86,1.11-1.72,1.61-2.59l-2.59-1.6c-.5.86-1.11,1.73-1.61,2.59Zm3.21-5.18c.49-.86,1.11-1.72,1.6-2.59l-2.59-1.6c-.49.87-1.11,1.73-1.6,2.59Zm3.33-5.17c.62-.87,1.11-1.73,1.73-2.59l-2.59-1.73c-.62.86-1.11,1.73-1.73,2.59Zm3.33-5.06c.61-.86,1.11-1.73,1.72-2.47l-2.46-1.72c-.62.86-1.11,1.72-1.73,2.46Zm3.45-4.93c.62-.87,1.11-1.61,1.73-2.47L81,184.18c-.62.87-1.23,1.73-1.73,2.47Zm3.45-4.94A28.36,28.36,0,0,0,86.9,181l-2.47-1.85c-.61.86-1.23,1.6-1.85,2.46Zm3.58-4.93c.62-.86,1.23-1.6,1.85-2.46l-2.47-1.85c-.61.86-1.23,1.6-1.85,2.46Zm3.7-4.93c.62-.86,1.23-1.6,1.85-2.47l-2.47-1.85c-.61.87-1.23,1.61-1.85,2.47Zm3.7-4.81c.62-.74,1.23-1.6,1.85-2.34l-2.34-1.85c-.62.74-1.24,1.6-1.85,2.34Zm3.82-4.69c.62-.74,1.23-1.6,2-2.34l-2.46-2c-.62.74-1.24,1.6-2,2.34Zm3.82-4.68,2-2.34-2.35-2c-.61.74-1.35,1.61-2,2.35Zm3.95-4.69c.62-.74,1.36-1.48,2-2.34l-2.34-2c-.62.74-1.36,1.48-2,2.34Zm4-4.56c.61-.74,1.35-1.48,2-2.22l-2.22-2.1c-.74.74-1.36,1.48-2.1,2.35Zm4.07-4.56c.74-.74,1.35-1.48,2.09-2.22l-2.22-2.1c-.74.74-1.35,1.48-2.09,2.22Zm614-.25,2.22-2.1c-.74-.74-1.36-1.48-2.1-2.22l-2.21,2.1c.74.74,1.35,1.48,2.09,2.22ZM120,141.15c.74-.74,1.35-1.48,2.09-2.22l-2.22-2.1c-.74.74-1.35,1.48-2.09,2.22Zm605.59-.25,2.22-2.09c-.74-.74-1.36-1.48-2.1-2.22l-2.22,2.09c.74.74,1.48,1.48,2.1,2.22Zm-601.4-4.19c.74-.74,1.36-1.48,2.1-2.22l-2.22-2.1c-.74.74-1.48,1.48-2.1,2.22Zm597.21-.25,2.22-2.09c-.74-.74-1.48-1.48-2.1-2.22l-2.22,2.09c.74.74,1.36,1.48,2.1,2.22Zm-592.89-4.07,2.09-2.09-2.09-2.22-2.22,2.22Zm588.69-.24,2.22-2.22-2.22-2.22-2.09,2.22c.61.74,1.35,1.48,2.09,2.22Zm-584.38-4.07c.74-.74,1.48-1.36,2.22-2.1l-2.09-2.22c-.74.74-1.48,1.36-2.22,2.1Zm580.07-.25,2.09-2.22c-.74-.74-1.48-1.48-2.22-2.1l-2.09,2.22c.74.74,1.48,1.48,2.22,2.1Zm-575.75-4c.74-.74,1.48-1.35,2.22-2.09l-2.1-2.22c-.74.74-1.48,1.35-2.22,2.09Zm571.31-.24,2.09-2.22c-.74-.74-1.48-1.36-2.21-2.1l-2.1,2.22c.74.74,1.48,1.48,2.22,2.1Zm-566.87-3.83c.74-.73,1.48-1.35,2.22-2.09l-2.1-2.22c-.74.74-1.48,1.36-2.22,2.1ZM704,119.57l2.1-2.22c-.74-.74-1.48-1.36-2.22-2.1l-2.1,2.22c.74.62,1.48,1.36,2.22,2.1Zm-557.87-3.95c.74-.61,1.48-1.35,2.22-2l-2-2.34c-.74.61-1.48,1.35-2.35,2Zm553.31-.24,2-2.22a18.55,18.55,0,0,0-2.34-2l-2,2.35c.87.61,1.61,1.23,2.35,1.85Zm-548.75-3.7c.74-.62,1.48-1.36,2.35-2l-2-2.34c-.74.62-1.6,1.36-2.34,2Zm544.18-.25,2-2.34-2.35-2-2,2.35c.86.61,1.6,1.35,2.34,2Zm-539.61-3.7c.74-.62,1.6-1.36,2.34-2l-2-2.35-2.35,2Zm535.05-.25,2-2.34c-.74-.62-1.6-1.36-2.34-2l-2,2.34c.74.62,1.48,1.36,2.34,2Zm-4.68-3.94,2-2.35c-.74-.61-1.6-1.23-2.34-2l-2,2.34a18,18,0,0,0,2.35,2Zm-4.81-3.83,1.85-2.34c-.74-.61-1.61-1.23-2.47-1.85L678.31,98a18.11,18.11,0,0,1,2.47,1.72ZM676,96l1.85-2.47c-.87-.62-1.61-1.23-2.47-1.85l-1.85,2.47c.86.61,1.73,1.23,2.47,1.85Zm-4.81-3.7L673,89.85c-.87-.62-1.61-1.23-2.47-1.85l-1.85,2.47a26.35,26.35,0,0,0,2.47,1.85Zm-4.93-3.58,1.84-2.47c-.86-.61-1.6-1.23-2.46-1.72L663.88,87c.74.62,1.61,1.11,2.35,1.73Zm-4.94-3.45L663,82.82c-.86-.62-1.73-1.11-2.47-1.73l-1.72,2.47a17.22,17.22,0,0,1,2.46,1.73Zm-4.93-3.46,1.73-2.46c-.87-.62-1.73-1.11-2.59-1.73l-1.73,2.59a15.15,15.15,0,0,1,2.59,1.6Zm-5.06-3.45L653,75.79c-.86-.61-1.73-1.11-2.59-1.72l-1.6,2.59a18,18,0,0,0,2.46,1.72Zm-5-3.33,1.6-2.59c-.86-.49-1.72-1.11-2.59-1.6l-1.6,2.59a28,28,0,0,0,2.59,1.6Zm-5.18-3.2,1.6-2.59c-.86-.5-1.72-1.11-2.59-1.61l-1.6,2.59a30.43,30.43,0,0,0,2.59,1.61Zm-5.18-3.09,1.6-2.59a29.34,29.34,0,0,1-2.59-1.6l-1.6,2.59a30.27,30.27,0,0,1,2.59,1.6Zm-5.3-3.08,1.48-2.59-2.59-1.48L628,64.32a13.75,13.75,0,0,1,2.59,1.36Zm-5.18-3.08,1.48-2.72c-.86-.49-1.73-1-2.71-1.48l-1.48,2.72c.86.49,1.85,1,2.71,1.48Zm-5.3-2.84,1.48-2.71c-.87-.49-1.85-1-2.72-1.48l-1.48,2.71c.87.49,1.73,1,2.72,1.48Zm-5.43-2.83L616,54.21a28.61,28.61,0,0,0-2.72-1.35L612,55.57a18.05,18.05,0,0,1,2.71,1.36Zm-5.43-2.84,1.36-2.71c-.86-.5-1.85-.87-2.71-1.36l-1.36,2.71c1,.5,1.85.87,2.71,1.36Z"/></g><g id="Group_85" data-name="Group 85" class="cls-5"><path id="Path_955" data-name="Path 955" class="cls-4" d="M353.57,159.05l4.68-1.11,1.48-.37c2.47-.62,4.94-1.11,7.4-1.6a267,267,0,0,1,34.41-4.81A5.67,5.67,0,0,1,403,151c6.66-.49,13.19-.74,19.85-.74a279.09,279.09,0,0,1,51.55,4.81,5.81,5.81,0,0,0,1.48.25c7.64,1.48,15.29,3.33,22.81,5.42a292.41,292.41,0,0,1,30.21,10.49,4.69,4.69,0,0,1,1.36.61c4.93,2.1,9.61,4.2,14.42,6.54.5.24.87.49,1.36.74q10.73,5.35,20.72,11.47a277.68,277.68,0,0,1,33.54,24c.37.25.74.62,1.23,1,5.55,4.68,10.85,9.49,16,14.67,2.34,2.22,4.56,4.57,6.78,6.91l.74.86c.13.13.13.25.25.25a5.48,5.48,0,0,1,.74.86l-4.44,4.19c-.25-.24-.49-.61-.74-.86l-.25-.25a5.81,5.81,0,0,0-.86-.86c-2.22-2.34-4.44-4.56-6.66-6.78-5-4.93-10.23-9.74-15.53-14.18a10.34,10.34,0,0,0-1.24-1,279.49,279.49,0,0,0-32.8-23.55,229.63,229.63,0,0,0-20.35-11.22,6.24,6.24,0,0,0-1.35-.62c-4.56-2.22-9.25-4.44-14.06-6.41a14.92,14.92,0,0,1-1.36-.62,270.36,270.36,0,0,0-29.59-10.36c-7.28-2.09-14.68-3.82-22.2-5.3h0a6.28,6.28,0,0,0-1.48-.25,255.42,255.42,0,0,0-50.31-4.68c-6.54,0-12.95.25-19.36.74-.49,0-1,.12-1.48.12A275.65,275.65,0,0,0,368.49,162c-2.47.49-4.93,1-7.28,1.6l-1.48.37c-1.48.37-3,.74-4.56,1.11l-1.48.37-1.6-5.92A6.59,6.59,0,0,1,353.57,159.05ZM685.65,495.69q3.15-12.21,5.18-24.78a267.25,267.25,0,0,0,3.45-43.16c0-8.51-.37-16.77-1.11-25,0-.49-.12-1-.12-1.47a279.72,279.72,0,0,0-4.32-28.61l5.92-1.24a289.62,289.62,0,0,1,4.44,29.23c0,.49.13,1,.13,1.48.74,8.38,1.23,17,1.23,25.65A280,280,0,0,1,696.87,472a247.07,247.07,0,0,1-5.3,25.28c-.12.49-.25,1-.37,1.48l-5.92-1.61c.12-.49.25-1,.37-1.48Zm-539.74-84a274.29,274.29,0,0,1,24.29-98.41c.25-.49.37-.86.62-1.35a275.65,275.65,0,0,1,49.82-74,7,7,0,0,1,1-1l.13-.12a7,7,0,0,1,1-1l4.44,4.19-.86,1-.12.12c-.25.37-.62.62-.87,1a268,268,0,0,0-48.95,72.26,13.77,13.77,0,0,1-.62,1.36A267.75,267.75,0,0,0,152.07,412c-.37,5.31-.49,10.49-.49,15.79,0,6,.25,12.08.62,18.12a6.13,6.13,0,0,0,.12,1.48,266.77,266.77,0,0,0,11.22,59.81,7.17,7.17,0,0,0,.5,1.48,259.42,259.42,0,0,0,16.77,41.19c.24.61.61,1.23.86,1.72s.49.87.74,1.36a274.34,274.34,0,0,0,37.86,54.75c.12.25.37.37.61.62l.5.49c.12.25.37.37.49.62l-4.56,4.07c-.13-.25-.37-.37-.5-.62s-.37-.37-.49-.49a2.79,2.79,0,0,1-.49-.62,278.46,278.46,0,0,1-38.72-56.11c-.25-.49-.5-.86-.74-1.35a13.37,13.37,0,0,1-.87-1.85,273.86,273.86,0,0,1-17.14-42.18,6.75,6.75,0,0,0-.49-1.48A271.48,271.48,0,0,1,146.4,447.6c0-.49-.12-1-.12-1.48-.37-6.16-.62-12.33-.62-18.5A138.77,138.77,0,0,1,145.91,411.72ZM574.05,653a269.11,269.11,0,0,0,42.42-35.27l1.11-1.11a255,255,0,0,0,22.57-26.39c1.48-2,3-4.07,4.44-6.16.24-.37.61-.86.86-1.23a268.67,268.67,0,0,0,39.83-85.83l.37-1.48q3.15-12.21,5.18-24.79a267.16,267.16,0,0,0,3.45-43.16c0-8.5-.37-16.77-1.11-25,0-.49-.12-1-.12-1.48a280.14,280.14,0,0,0-4.32-28.61c-.12-.49-.24-1-.37-1.48-.86-3.94-1.72-7.77-2.71-11.59-1.6-6.29-3.45-12.33-5.55-18.49-.12-.5-.37-1-.49-1.48l5.79-2c.13.5.37,1,.5,1.48,2.09,6.29,3.94,12.58,5.67,19,1,3.95,2,7.89,2.84,11.84.12.49.24,1,.37,1.48a295,295,0,0,1,4.44,29.23c0,.49.12,1,.12,1.48.74,8.38,1.23,17,1.23,25.64A281.09,281.09,0,0,1,697,471.89a249.24,249.24,0,0,1-5.31,25.28c-.12.5-.24,1-.37,1.48a271.27,271.27,0,0,1-40.81,87.68c-.25.37-.62.86-.87,1.23-1.48,2.1-3.08,4.19-4.56,6.29a283,283,0,0,1-23.06,27L620.91,622a275.64,275.64,0,0,1-43.4,36l-1.24.87-3.45-5.06a13.77,13.77,0,0,0,1.23-.74Z"/></g><g id="Group_86" data-name="Group 86"><path id="Path_956" data-name="Path 956" class="cls-4" d="M421.3,757.68h3.08V754.6h-3Zm-3,0V754.6h-3.09v3.08Zm9.12,0a26.6,26.6,0,0,0,3.09-.12l-.13-3.08a27.57,27.57,0,0,0-3.08.12Zm-15.29-.12.13-3.08a25.54,25.54,0,0,1-3.09-.13l-.12,3.09a26.52,26.52,0,0,0,3.08.12Zm21.46-.12c1,0,2.09-.13,3.08-.13l-.12-3.08c-1,0-2,.12-3.08.12ZM406,757.31l.12-3.08c-1,0-2-.12-3.08-.12l-.13,3.08C404,757.19,405,757.31,406,757.31Zm33.78-.12c1,0,2.1-.12,3.09-.12l-.25-3.09a23.48,23.48,0,0,1-3.08.13ZM400,757.07l.25-3.09c-1-.12-2-.12-3.08-.24l-.25,3.08a26.55,26.55,0,0,1,3.08.25Zm45.88-.25c1-.12,2.09-.12,3.08-.25l-.25-3.08c-1,.12-2,.12-3.08.25Zm-52-.25.24-3.08c-1-.12-2-.12-3.08-.25l-.24,3.09c1,.12,2.09.12,3.08.24Zm58.2-.24a24.74,24.74,0,0,1,3.08-.25l-.24-3.08a24.68,24.68,0,0,1-3.08.24ZM387.63,756l.25-3.09-3.08-.36-.37,3.08a16.47,16.47,0,0,0,3.2.37Zm70.41-.25c1-.12,2-.25,3.09-.37l-.37-3.08c-1,.12-2,.25-3.09.37Zm-76.45-.37.37-3.08-3-.37-.37,3.08c.86.12,2,.25,3,.37Zm82.62-.37c1-.12,2-.25,3.08-.37l-.37-3.08-3,.37Zm-88.79-.37.37-3.08-3-.37-.49,3.08a12.21,12.21,0,0,1,3.08.37Zm94.83-.49c1-.13,2-.25,3.09-.5l-.5-3c-1,.12-2,.37-3,.49Zm-100.87-.5.5-3c-1-.13-2-.37-3-.5l-.5,3a23.72,23.72,0,0,0,3,.49Zm106.91-.37c1-.12,2-.37,3.09-.49l-.5-3c-1,.13-2,.37-3,.5Zm-113-.61.49-3c-1-.12-2-.37-3-.49l-.61,3c1.11.12,2.09.37,3.08.49Zm119-.49c1-.25,2-.37,3-.62l-.62-3c-1,.25-2,.37-3,.62Zm-125-.62.61-3c-1-.25-2-.37-3-.62l-.61,3c1,.25,2,.37,3,.62Zm131.08-.62c1-.24,2-.37,3-.61l-.62-3c-1,.24-2,.37-3,.61Zm-137.12-.61.61-3c-1-.25-2-.37-3-.62l-.61,3a24.37,24.37,0,0,1,3,.62Zm143.16-.62,3-.74-.74-3a26,26,0,0,1-3,.62Zm-149.08-.74.74-3-3-.74-.74,3,3,.74Zm155-.62,3-.74-.74-3-3,.74Zm-160.92-.86.74-3-3-.74-.74,3,3,.74Zm167-.74,3-.74-.86-3-3,.74ZM333.5,746l.86-3a27.5,27.5,0,0,1-3-.86l-.86,3c1,.24,1.85.49,3,.86Zm178.8-.86c1-.25,2-.62,3-.87l-.86-3c-1,.25-2,.62-3,.87Zm-184.72-.87.86-3c-1-.24-2-.61-3-.86l-.86,3c1,.25,2,.62,3,.86Zm190.52-.86c1-.25,2-.62,3-.86l-.87-3c-1,.24-2,.61-3,.86Zm-196.44-1,.86-3a18.47,18.47,0,0,1-2.83-1l-1,3a26.28,26.28,0,0,0,3,1ZM524,741.53c1-.37,2-.62,3-1l-1-2.83c-1,.37-2,.61-3,1Zm5.79-2c1-.37,2-.62,3-1l-1-2.84c-1,.37-2,.62-2.84,1Zm5.8-2c1-.37,2-.74,2.83-1.11l-1.11-2.83c-1,.37-1.85.74-2.83,1.11Zm5.79-2.22c1-.37,1.85-.74,2.84-1.11l-1.11-2.83c-1,.37-1.85.74-2.84,1.11Zm5.8-2.34a29,29,0,0,0,2.84-1.23L548.8,729a26.74,26.74,0,0,0-2.83,1.24Zm5.67-2.34c1-.37,1.85-.86,2.84-1.23l-1.23-2.84c-1,.37-1.85.86-2.84,1.23Zm5.55-2.47c1-.37,1.85-.86,2.84-1.23L560,724.27c-.86.37-1.85.86-2.71,1.23Zm-468-275,3.08-.24c-.12-1-.12-2-.25-3.09l-3.08.25C90.32,451.13,90.32,452.11,90.45,453.22Zm-.37-6.16,3.08-.25a25.34,25.34,0,0,1-.12-3.08l-3.09.12a24.52,24.52,0,0,0,.13,3.21Zm-.37-6.17,3.08-.12c0-1-.12-2-.12-3.08l-3.09.12a23.41,23.41,0,0,0,.13,3.08Zm-.25-6,3.08-.12a27.65,27.65,0,0,0-.12-3.09H89.34a28.7,28.7,0,0,1,.12,3.21Zm-.12-6.17h3.08v-3.45H89.34v3.45Zm3.08-6.41v-3.08H89.34v3.08Zm.12-6.16c0-1,.13-2,.13-3.09l-3.09-.12c0,1-.12,2.1-.12,3.08Zm.25-6.05c0-1,.12-2,.12-3.08l-3.08-.12c0,1-.12,2.09-.12,3.08Zm.25-6c.12-1,.12-2,.24-3.08l-3.08-.25c-.12,1-.12,2.1-.25,3.09Zm.49-6c.12-1,.12-2,.25-3.08l-3.09-.25c-.12,1-.12,2.1-.24,3.08Zm.62-6c.12-1,.24-2,.37-3.09l-3.09-.37c-.12,1-.24,2-.37,3.09Zm.61-6,.37-3-3.08-.37c-.12,1-.25,2-.37,3.08Zm.74-6a25.77,25.77,0,0,1,.5-3l-3.09-.49a29.59,29.59,0,0,1-.49,3.08Zm1-6c.12-1,.37-2,.49-3l-3-.49c-.12,1-.37,2-.49,3.08Zm1-6c.12-1,.37-2,.49-3l-3-.62a23.42,23.42,0,0,0-.49,3Zm1.11-5.92c.24-1,.37-2,.61-3l-3.08-.62c-.25,1-.37,2-.62,3Zm645.17-2.47,3-.61c-.25-1-.37-2-.62-3l-3,.61a24.37,24.37,0,0,1,.62,3ZM99.82,355.93a26,26,0,0,0,.62-3l-3-.62a24.37,24.37,0,0,0-.62,3Zm642.71-2.59,3-.62c-.25-1-.5-2-.74-3l-3,.74c.24.87.49,1.85.74,2.84ZM101.18,350l.74-3-3-.74-.74,3Zm640-2.59,3-.74c-.25-1-.49-2-.74-3l-3,.74Zm-638.64-3.33.74-3-2.83-.86-.74,3Zm637.16-2.46,3-.74c-.25-1-.49-2-.74-3l-3,.86c.13.86.49,1.85.74,2.84Zm-635.55-3.46a26,26,0,0,1,.86-3l-3-.86c-.25,1-.62,2-.86,3Zm634-2.46,3-.87c-.25-1-.62-2-.87-3l-2.95.87a26,26,0,0,0,.86,3Zm-632.23-3.33c.25-1,.62-2,.87-3l-3-.87c-.25,1-.62,2-.87,3Zm630.5-2.47,3-.86c-.24-1-.61-2-.86-3l-3,.86A27.5,27.5,0,0,0,736.36,329.91Zm-628.77-3.45a19.74,19.74,0,0,1,1-2.84l-2.95-1c-.37,1-.62,2-1,2.95ZM734.51,324l3-1c-.37-1-.61-2-1-3l-2.84,1a17.11,17.11,0,0,0,.86,3Zm-625.07-3.33c.37-1,.61-2,1-2.83l-2.83-1c-.37,1-.62,2-1,3Zm623.1-2.46,2.84-1c-.37-1-.62-2-1-3l-2.84,1c.37,1.11.74,2.09,1,3ZM111.41,315a26.63,26.63,0,0,0,1-2.84L109.56,311c-.37,1-.74,2-1,2.84Zm619.16-2.47,2.83-1.11c-.37-1-.74-2-1.11-2.83l-2.83,1.11C729.83,310.55,730.2,311.54,730.57,312.52Zm-617.06-3.2c.37-1,.74-1.85,1.11-2.84l-2.84-1.11c-.37,1-.74,1.85-1.11,2.84Zm614.84-2.47,2.83-1.11c-.37-1-.74-1.85-1.11-2.83L727.24,304C727.61,304.88,728,305.86,728.35,306.85Zm-612.62-3.2c.37-1,.74-1.85,1.11-2.84L114,299.7c-.37,1-.74,1.85-1.11,2.84Zm610.4-2.47,2.83-1.11a29,29,0,0,0-1.23-2.84l-2.84,1.24a13.34,13.34,0,0,1,1.24,2.71ZM118.07,298a28.86,28.86,0,0,1,1.23-2.83l-2.83-1.24c-.37,1-.87,1.85-1.24,2.84Zm605.71-2.46,2.84-1.24c-.37-1-.86-1.85-1.23-2.83l-2.84,1.23A29,29,0,0,0,723.78,295.51Zm-603.37-3.09c.37-.86.87-1.85,1.24-2.71l-2.84-1.23c-.37,1-.86,1.85-1.23,2.83ZM721.32,290l2.83-1.24c-.37-1-.86-1.85-1.23-2.83l-2.71,1.23A12.84,12.84,0,0,0,721.32,290ZM123,286.87c.37-.86.87-1.85,1.24-2.71l-2.72-1.35c-.49.86-.86,1.84-1.35,2.71Zm595.73-2.46,2.71-1.36c-.49-1-.86-1.85-1.36-2.71l-2.71,1.36c.5.86.87,1.72,1.36,2.71Zm-593.14-3c.5-.86.87-1.85,1.36-2.71l-2.71-1.36c-.5.86-.87,1.85-1.36,2.71ZM716,278.86l2.71-1.36c-.49-.86-.86-1.85-1.36-2.71l-2.71,1.36c.49,1,1,1.85,1.36,2.71ZM128.31,276a28.46,28.46,0,0,0,1.35-2.71L127,272a28.74,28.74,0,0,0-1.36,2.72Zm585-2.59,2.72-1.35c-.5-.87-1-1.85-1.48-2.72l-2.72,1.48,1.48,2.59Zm-582.16-2.71c.49-.86,1-1.73,1.48-2.71l-2.71-1.48c-.5.86-1,1.85-1.48,2.71Zm579.33-2.59,2.71-1.48c-.49-.86-1-1.85-1.48-2.71L709,265.42c.49.86,1,1.85,1.48,2.71ZM134,265.29l1.48-2.58-2.72-1.48c-.49.86-1,1.72-1.48,2.71Zm573.4-2.46,2.72-1.48c-.5-.86-1-1.73-1.48-2.71L706,260.12a28.46,28.46,0,0,0,1.35,2.71Zm-570.44-2.71,1.48-2.59-2.59-1.61a28.94,28.94,0,0,1-1.61,2.59Zm567.48-2.59,2.59-1.61c-.49-.86-1.11-1.72-1.6-2.59l-2.59,1.61c.49.86,1,1.72,1.6,2.59Zm-564.28-2.72c.5-.86,1.11-1.72,1.61-2.59l-2.59-1.6c-.5.86-1.11,1.73-1.61,2.59Zm561.08-2.46,2.59-1.61c-.5-.86-1.11-1.72-1.61-2.59l-2.59,1.61c.5.86,1.11,1.72,1.61,2.59Zm-557.87-2.59c.49-.87,1.11-1.73,1.6-2.59l-2.59-1.61c-.49.87-1.11,1.73-1.6,2.59Zm554.54-2.59,2.59-1.61c-.62-.86-1.11-1.72-1.73-2.58l-2.59,1.72a16.77,16.77,0,0,1,1.73,2.47Zm-551.33-2.59c.61-.86,1.11-1.73,1.72-2.47l-2.59-1.72c-.61.86-1.11,1.72-1.72,2.59Zm548-2.47,2.59-1.72c-.62-.87-1.11-1.73-1.73-2.59L693,239.52c.49.87,1.11,1.73,1.6,2.59ZM150,239.65c.61-.87,1.11-1.61,1.72-2.47l-2.46-1.73c-.62.87-1.11,1.73-1.73,2.47Zm541.1-2.59,2.46-1.73c-.61-.86-1.23-1.73-1.72-2.47l-2.47,1.73a29.15,29.15,0,0,1,1.73,2.47Zm-537.65-2.47a29.15,29.15,0,0,0,1.73-2.47l-2.47-1.85c-.62.87-1.23,1.61-1.85,2.47Zm534.19-2.47,2.47-1.85c-.62-.86-1.23-1.6-1.85-2.46l-2.47,1.85c.62.86,1.24,1.6,1.85,2.46ZM157,229.66c.61-.87,1.23-1.61,1.85-2.47l-2.47-1.85c-.62.86-1.23,1.6-1.85,2.47ZM684,227.19l2.47-1.85c-.62-.86-1.23-1.6-1.85-2.46l-2.47,1.84C682.72,225.59,683.34,226.45,684,227.19Zm-523.21-2.34c.61-.74,1.23-1.6,1.85-2.34l-2.35-1.85c-.61.74-1.23,1.6-1.85,2.46Zm519.51-2.47,2.35-1.85c-.62-.86-1.24-1.6-1.85-2.46l-2.35,1.85c.62.86,1.24,1.72,1.85,2.46ZM164.44,220c.61-.74,1.23-1.6,1.85-2.34l-2.35-2c-.61.74-1.23,1.61-2,2.35Zm512-2.34,2.34-2c-.61-.74-1.35-1.6-2-2.34l-2.34,2a17.15,17.15,0,0,1,2,2.35Zm-508.17-2.35,2-2.34-2.34-2c-.62.74-1.36,1.6-2,2.34ZM672.61,213l2.34-2c-.61-.74-1.35-1.61-2-2.35l-2.34,2c.61.74,1.23,1.6,2,2.34ZM172.2,210.79c.62-.74,1.36-1.48,2-2.34l-2.22-2c-.62.74-1.36,1.48-2,2.35Zm496.34-2.34,2.34-2c-.61-.74-1.35-1.48-2.09-2.34l-2.22,2.1a11.23,11.23,0,0,1,2,2.22Zm-492.27-2.22c.62-.74,1.36-1.48,2.1-2.22l-2.22-2.1c-.74.74-1.36,1.48-2.1,2.22Zm488.32-2.35,2.22-2.09c-.74-.74-1.35-1.48-2.09-2.22l-2.22,2.1c.61.74,1.35,1.47,2.09,2.21Zm-484.25-2.21c.74-.74,1.36-1.48,2.1-2.22l-2.22-2.1c-.74.74-1.36,1.48-2.1,2.22Zm30.83-29.23c.74-.62,1.6-1.23,2.34-2l-2-2.35-2.34,2Zm4.81-3.82c.74-.62,1.6-1.24,2.34-1.85l-1.85-2.35c-.86.62-1.6,1.24-2.34,1.85Zm4.69-3.83c.86-.61,1.6-1.23,2.46-1.85l-1.85-2.46c-.86.62-1.6,1.23-2.46,1.85Zm4.93-3.57c.86-.62,1.6-1.23,2.47-1.85l-1.85-2.47c-.87.62-1.61,1.24-2.47,1.85Zm4.93-3.58a29,29,0,0,1,2.47-1.72l-1.73-2.47c-.86.62-1.72,1.23-2.46,1.73Zm4.93-3.57c.87-.62,1.73-1.11,2.47-1.73l-1.73-2.59c-.86.62-1.72,1.11-2.59,1.73Zm5.06-3.33c.86-.62,1.73-1.11,2.59-1.73l-1.6-2.59c-.87.62-1.73,1.11-2.59,1.73Zm5.18-3.33c.86-.5,1.73-1.11,2.59-1.61l-1.6-2.59c-.87.5-1.73,1.11-2.59,1.61Zm5.18-3.21c.86-.49,1.72-1.11,2.59-1.6L251.86,140c-.86.49-1.72,1.11-2.58,1.6Zm5.18-3.08,2.59-1.48-1.48-2.71c-.87.49-1.73,1-2.72,1.48Zm5.3-3.08c.86-.5,1.73-1,2.71-1.48l-1.48-2.72c-.86.5-1.85,1-2.71,1.48Zm5.3-2.84c.87-.49,1.85-1,2.72-1.48L268,131c-.86.49-1.85,1-2.71,1.48Zm5.43-2.84c.86-.49,1.85-.86,2.71-1.35l-1.36-2.72c-.86.5-1.85.87-2.71,1.36Zm5.42-2.71c.87-.49,1.85-.86,2.72-1.36l-1.36-2.71c-1,.49-1.85.86-2.71,1.36Zm5.55-2.71c.87-.37,1.85-.87,2.72-1.24l-1.24-2.83c-1,.37-1.85.86-2.83,1.23Zm5.55-2.47c1-.37,1.85-.86,2.84-1.23l-1.23-2.84c-1,.37-1.85.87-2.84,1.23Zm5.55-2.47c1-.37,1.85-.73,2.84-1.1l-1.11-2.84a29,29,0,0,0-2.84,1.23Zm5.67-2.21c1-.37,1.85-.74,2.84-1.11l-1.11-2.84c-1,.37-2,.74-2.84,1.11Zm5.68-2.22c1-.37,1.85-.74,2.83-1.11l-1.11-2.84c-1,.37-2,.74-2.83,1.11Zm5.79-2.1c1-.37,2-.62,2.84-1l-1-2.83c-1,.37-2,.61-3,1Zm5.8-2c1-.37,2-.62,3-1l-1-3c-1,.37-2,.62-3,1Zm5.79-2c1-.24,2-.61,3-.86l-.86-3c-1,.25-2,.62-3,.86Zm5.8-1.72c1-.25,2-.62,3-.87l-.86-3c-1,.25-2,.62-3,.87Zm5.92-1.61,3-.74-.74-3-3,.74Zm5.79-1.6,3-.74-.74-3-3,.74Zm5.92-1.48a26.44,26.44,0,0,1,3-.62l-.61-3-3,.74Zm5.92-1.23c1-.25,2-.37,3-.62l-.62-3c-1,.25-2,.37-2.95.62Zm6-1.24c1-.24,2-.37,3-.61l-.61-3c-1,.25-2,.37-3,.62Zm5.92-1.11c1-.12,2-.36,3-.49l-.49-3c-1,.13-2,.37-3.08.5Zm6.05-1c1-.12,2-.37,2.95-.49l-.49-3a30,30,0,0,0-3.08.49Zm5.91-.86,3-.37-.37-3.09c-1,.13-2,.25-3.08.37Zm6-.87,3-.37-.37-3.08c-1,.12-2,.25-3.09.37Zm6-.61a22.86,22.86,0,0,1,3.08-.25l-.24-3.08a26.79,26.79,0,0,1-3.09.24Zm6-.5c1-.12,2-.12,3.08-.24l-.24-3.09c-1,.13-2.1.13-3.09.25Z"/></g><path id="Path_957" data-name="Path 957" class="cls-4" d="M544.32,685.45l5.67,12,13.44,28.36.74,1.61,9.25,19.36.74,1.6,25,52.41.74,1.6c.5-.25.87-.37,1.36-.62l-.74-1.6-25-52.41-.74-1.6-9.25-19.36-.74-1.6-13.44-28.37-5.68-12A4.4,4.4,0,0,1,544.32,685.45Z"/><path id="Path_959" data-name="Path 959" class="cls-4" d="M292.27,822.45c.49.12,1,.37,1.48.49l.49-1.6,18.13-55.86.49-1.6,6.66-20.47.49-1.61v-.12l1.85-5.79a7.17,7.17,0,0,1-1.48-.5l-1.85,5.8v.12l-.49,1.6-6.66,20.47-.49,1.61-18.13,55.86Z"/><path id="Path_960" data-name="Path 960" class="cls-4" d="M112,706a8.24,8.24,0,0,1,1,1.11L114.2,706,158,666.21l1.23-1.11,15.91-14.42,1.23-1.11,40-36.38,4.57-4.07-.5-.49c-.12-.25-.37-.37-.61-.62l-4.56,4.07-40,36.38L174,649.57,158.1,664l-1.23,1.11L113,704.93Z"/><path id="Path_962" data-name="Path 962" class="cls-4" d="M4.7,457.32c0,.49.12,1,.12,1.48l1.61-.12L66.48,454l1.48-.12,21.58-1.73L91,452l29.84-2.34,4.32-.37c0-.5-.13-1-.13-1.48l-4.31.37L90.9,450.54l-1.48.12-21.58,1.73-1.48.12L6.3,457.2Z"/><path id="Path_963" data-name="Path 963" class="cls-4" d="M155.51,103.29l1.11,1.35L195.1,151.5l1.1,1.36,13.69,16.65,1.11,1.35,17.27,21,3.7,4.56a11,11,0,0,1,1.23-1l-3.7-4.56-17.26-21-1.11-1.36-13.57-16.65-1.36-1.35-38.47-46.86-1.11-1.36A8.24,8.24,0,0,1,155.51,103.29Z"/><path id="Path_964" data-name="Path 964" class="cls-4" d="M116.42,139.91l1.23,1.11,44.15,41.56,1.23,1.23,15.66,14.68,1.24,1.11L200,218.46l4.19,3.95,16.52,15.41,4.44,4.2c.25-.37.62-.62.87-1l.12-.12-4.44-4.2-16.52-15.53-4.2-4-20-18.62-1.24-1.11-15.66-14.8-1.23-1.23-44.15-41.56-1.23-1.11Z"/><path id="Path_966" data-name="Path 966" class="cls-4" d="M396,71.1l.13,1.48,1.48,21.58.12,1.48,1.85,26,.37,6.17c.49,0,1-.13,1.48-.13l-.37-6.16-1.85-25.9-.12-1.6-1.48-21.58L397.45,71A6.13,6.13,0,0,1,396,71.1Z"/><path id="Path_967" data-name="Path 967" class="cls-4" d="M555.05,157.92l1.35.74,2.72-5.43,11.34-22.69.74-1.6,9.62-19.12.74-1.6L608.44,54.7l.74-1.6c-.49-.25-.86-.49-1.36-.74L607,54l-26.88,53.52-.74,1.6-9.62,19.12-.74,1.6-11.34,22.69Z"/><path id="Path_970" data-name="Path 970" class="cls-4" d="M619.91,241.4a5.37,5.37,0,0,0,.86.86l.25.25,4.44-4.19L665,201.82l1.23-1.11,15.79-14.56,1.23-1.1,43.65-40.33,1.24-1.11a8.24,8.24,0,0,1-1-1.11L726,143.61l-43.78,40.2L681,184.92l-15.79,14.55-1.23,1.11-39.58,36.5Z"/><path id="Path_971" data-name="Path 971" class="cls-4" d="M688.35,371.12c.12.37.12.74.24,1.24v.37l6-1.24-6,1.24,5.92-1.24L706,369.15l11.1-2.22,29.1-5.92,1.6-.37L769,356.33l1.61-.37a6,6,0,0,1-.25-1.48l-1.6.24L747.54,359l-1.61.37-29.22,5.92-11.1,2.22-11.47,2.34-5.79,1.23,6-1.23Z"/><path id="Path_972" data-name="Path 972" class="cls-4" d="M700.8,501.34l11.72,3.21,29.1,7.77,1.6.37,20.84,5.55,1.6.37,56.48,15.16,1.61.37c.12-.49.24-1,.37-1.48l-1.61-.37L766,517.13l-1.6-.37-20.84-5.55-1.6-.37-29.1-7.77-11.72-3.21C701.05,500.36,700.93,500.85,700.8,501.34Z"/><path id="Path_974" data-name="Path 974" class="cls-4" d="M722.26,141.89a6.54,6.54,0,1,0,6.53-6.54h0a6.5,6.5,0,0,0-6.53,6.54Z"/><path id="Path_975" data-name="Path 975" class="cls-4" d="M676.63,183.2a6.54,6.54,0,1,0,6.54-6.54h0a6.5,6.5,0,0,0-6.54,6.54Z"/><path id="Path_976" data-name="Path 976" class="cls-4" d="M657.77,202.56A6.54,6.54,0,1,0,664.3,196h0A6.5,6.5,0,0,0,657.77,202.56Z"/><path id="Path_977" data-name="Path 977" class="cls-4" d="M575.76,107.36a6.54,6.54,0,1,0,6.54-6.54h0A6.5,6.5,0,0,0,575.76,107.36Z"/><path id="Path_978" data-name="Path 978" class="cls-4" d="M603,52.36a6.54,6.54,0,1,0,6.54-6.54h0A6.59,6.59,0,0,0,603,52.36Z"/><path id="Path_979" data-name="Path 979" class="cls-4" d="M389.56,71.23a6.54,6.54,0,1,0,6.54-6.54h0A6.58,6.58,0,0,0,389.56,71.23Z"/><path id="Path_980" data-name="Path 980" class="cls-4" d="M391.78,96a6.54,6.54,0,1,0,6.54-6.53h0A6.58,6.58,0,0,0,391.78,96Z"/><path id="Path_981" data-name="Path 981" class="cls-4" d="M205.82,168.89a6.54,6.54,0,1,0,6.54-6.53h0A6.57,6.57,0,0,0,205.82,168.89Z"/><path id="Path_982" data-name="Path 982" class="cls-4" d="M150.83,102.55A6.54,6.54,0,1,0,157.36,96h0A6.58,6.58,0,0,0,150.83,102.55Z"/><path id="Path_983" data-name="Path 983" class="cls-4" d="M113.34,140.65a6.54,6.54,0,1,0,6.53-6.53h0A6.66,6.66,0,0,0,113.34,140.65Z"/><path id="Path_984" data-name="Path 984" class="cls-4" d="M173.64,200.83a6.54,6.54,0,1,0,6.53-6.54h0A6.58,6.58,0,0,0,173.64,200.83Z"/><circle id="Ellipse_147" data-name="Ellipse 147" class="cls-4" cx="92.62" cy="452.02" r="6.54"/><circle id="Ellipse_148" data-name="Ellipse 148" class="cls-4" cx="67.71" cy="451.77" r="6.54"/><circle id="Ellipse_149" data-name="Ellipse 149" class="cls-4" cx="7.54" cy="458.31" r="6.54"/><circle id="Ellipse_150" data-name="Ellipse 150" class="cls-4" cx="159.33" cy="663.01" r="6.54"/><path id="Path_985" data-name="Path 985" class="cls-4" d="M105.45,704.44A6.54,6.54,0,1,0,112,697.9h0A6.58,6.58,0,0,0,105.45,704.44Z"/><path id="Path_986" data-name="Path 986" class="cls-4" d="M305.71,764.25a6.54,6.54,0,1,0,6.53-6.54h0A6.58,6.58,0,0,0,305.71,764.25Z"/><path id="Path_987" data-name="Path 987" class="cls-4" d="M557.14,725.4a6.54,6.54,0,1,0,6.54-6.53h0A6.58,6.58,0,0,0,557.14,725.4Z"/><circle id="Ellipse_151" data-name="Ellipse 151" class="cls-4" cx="574.9" cy="746.49" r="6.54"/><path id="Path_988" data-name="Path 988" class="cls-4" d="M315.33,740a6.54,6.54,0,1,0,6.53-6.53h0A6.57,6.57,0,0,0,315.33,740Z"/><path id="Path_989" data-name="Path 989" class="cls-4" d="M285.73,823.19a6.54,6.54,0,1,0,6.54-6.54h0A6.59,6.59,0,0,0,285.73,823.19Z"/><circle id="Ellipse_152" data-name="Ellipse 152" class="cls-4" cx="601.17" cy="803.21" r="6.54"/><circle id="Ellipse_153" data-name="Ellipse 153" class="cls-4" cx="824.73" cy="535.13" r="6.54"/><path id="Path_990" data-name="Path 990" class="cls-4" d="M765.91,353.74a6.54,6.54,0,1,0,6.54-6.54h0A6.5,6.5,0,0,0,765.91,353.74Z"/><path id="Path_991" data-name="Path 991" class="cls-4" d="M759.62,517.74a6.54,6.54,0,1,0,6.54-6.53h0A6.58,6.58,0,0,0,759.62,517.74Z"/><circle id="Ellipse_154" data-name="Ellipse 154" class="cls-4" cx="746.8" cy="360.27" r="6.54"/><path id="Path_1026" data-name="Path 1026" class="cls-4" d="M36,254.22a6.54,6.54,0,1,0,6.54-6.53h0A6.42,6.42,0,0,0,36,254.22Z"/><rect class="cls-6" width="850.39" height="850.39"/></g></g></svg>