<svg xmlns="http://www.w3.org/2000/svg" viewBox="0 0 850.39 850.39"><defs><style>.cls-1{fill:#7e7e87;}.cls-2{opacity:0.8;}.cls-3{fill:none;}</style></defs><g id="Layer_2" data-name="Layer 2"><g id="Group_88" data-name="Group 88"><g id="Group_78" data-name="Group 78"><path id="Path_948" data-name="Path 948" class="cls-1" d="M427.44,764.94V762.3c-4.39,0-9,0-13.63-.22l-.22,2.64C418.43,764.94,423.05,764.94,427.44,764.94Zm13.63-.22c4.4-.22,9-.44,13.64-.88l-.22-2.64c-4.62.44-9,.66-13.42.88Zm-40.89-.88.22-2.64L387,759.88l-.22,2.64c4.4.44,8.79.88,13.41,1.32Zm68.16-1.32c4.39-.44,9-1.1,13.41-2l-.44-2.63c-4.4.65-9,1.31-13.41,2Zm-95.2-2,.44-2.63c-4.4-.66-9-1.54-13.41-2.42l-.44,2.63c4.39.88,8.79,1.76,13.41,2.42Zm122.24-2.42c4.4-.87,9-2,13.41-3.07l-.66-2.64c-4.4,1.1-8.79,2-13.19,2.86Zm-149.06-3.07.66-2.64c-4.4-1.1-8.8-2.2-13.2-3.52l-.66,2.64c4.4,1.32,8.8,2.42,13.2,3.52Zm175.44-3.3c4.4-1.32,8.8-2.64,13-4l-.88-2.64c-4.39,1.32-8.57,2.86-13,4Zm-201.61-4.18.88-2.64c-4.17-1.32-8.57-2.85-12.75-4.61L307.4,743c4.18,1.54,8.36,3.08,12.75,4.62ZM547.71,743c4.17-1.53,8.57-3.29,12.75-5.05l-1.1-2.42c-4.18,1.76-8.36,3.52-12.53,5.06ZM294.65,737.9l1.1-2.42c-4.18-1.76-8.36-3.74-12.31-5.5l-1.1,2.42C286.3,734.16,290.47,736.14,294.65,737.9ZM573,732.4c4.18-2,8.13-4,12.31-6.15L584,723.83c-4,2.2-8.13,4.17-12.09,6.15Zm-303-6.15,1.31-2.42-11.87-6.6-1.32,2.42,11.88,6.6Zm327.14-6.6c4-2.2,7.92-4.62,11.66-7l-1.54-2.19c-3.74,2.41-7.7,4.83-11.66,7Zm-350.67-7,1.54-2.19c-3.74-2.42-7.69-4.84-11.21-7.48l-1.54,2.2c3.52,2.42,7.25,5.06,11.21,7.47Zm373.76-7.69c3.74-2.64,7.47-5.28,11-7.92l-1.54-2.19c-3.52,2.63-7.25,5.27-11,7.91ZM224.08,697l1.53-2.19c-3.51-2.64-7.25-5.5-10.55-8.36l-1.76,2.2c3.52,2.86,7,5.72,10.78,8.35ZM642,688.65c3.52-2.86,7-5.94,10.34-8.79l-1.76-2c-3.3,3.07-6.82,5.93-10.33,8.79Zm-439-8.79,1.76-2c-3.3-3.08-6.82-6.16-9.9-9.24l-2,2c3.29,3.08,6.59,6.16,10.11,9.24Zm459.5-9.46c3.3-3.08,6.6-6.37,9.68-9.67l-2-2c-3.08,3.3-6.38,6.38-9.68,9.67ZM183.18,661l2-2-9.23-9.89-2,1.75c3.08,3.3,6.15,6.82,9.23,10.12Zm498.2-10.12c3.08-3.29,5.94-6.81,8.79-10.33l-2.2-1.76c-2.85,3.52-5.71,7-8.79,10.34ZM165.15,640.5l2.2-1.76c-2.86-3.52-5.71-7-8.35-10.55l-2.2,1.54C159.44,633.25,162.3,637,165.15,640.5Zm533.6-10.77c2.64-3.52,5.49-7.26,7.91-11l-2.2-1.54c-2.63,3.73-5.27,7.47-7.91,11ZM148.66,618.52l2.2-1.54c-2.64-3.74-5.05-7.48-7.47-11.22l-2.2,1.54c2.42,3.74,4.84,7.48,7.47,11.22ZM714.14,607.3c2.42-3.73,4.83-7.69,7-11.65l-2.41-1.32c-2.2,4-4.62,7.7-7,11.65ZM133.93,595.43l2.42-1.32-6.59-11.87-2.42,1.32c2.2,4,4.4,8.13,6.59,11.87Zm593.84-11.65c2.2-4,4.18-8.14,6.16-12.09l-2.42-1.1c-2,3.95-4,8.13-6.16,12.09ZM121.4,571.25l2.42-1.1c-2-4-3.74-8.14-5.5-12.32l-2.41,1.1a121.23,121.23,0,0,0,5.49,12.32Zm618.24-12.1c1.76-4.17,3.52-8.35,5.06-12.53l-2.64-.88c-1.54,4.18-3.3,8.36-5.06,12.53Zm-629-13,2.64-.88c-1.54-4.17-3.08-8.57-4.62-12.75l-2.64.66a129.49,129.49,0,0,0,4.62,13Zm638.69-12.53c1.53-4.4,2.85-8.79,4.17-13l-2.64-.66c-1.31,4.4-2.63,8.57-4,13ZM101.83,520.24l2.64-.66c-1.32-4.4-2.42-8.79-3.51-13.19l-2.64.66c1.1,4.39,2.42,8.79,3.51,13.19Zm655-12.75c1.1-4.4,2.2-8.8,3.08-13.41l-2.64-.44c-.88,4.39-2,8.79-3.08,13.19ZM95.46,493.64l2.64-.44c-.88-4.4-1.76-8.8-2.42-13.41l-2.64.43c.66,4.62,1.54,9,2.42,13.42Zm666.83-13c.66-4.39,1.32-9,2-13.41l-2.64-.22c-.44,4.4-1.1,9-2,13.41ZM91.06,466.81l2.64-.22c-.44-4.39-.88-9-1.32-13.41l-2.64.22c.44,4.4.88,8.8,1.32,13.41Zm674.52-13.19c.44-4.61.66-9,.88-13.63l-2.63-.22c-.22,4.4-.44,9-.88,13.41ZM88.86,439.55H91.5c-.22-4.4-.22-9-.22-13.63v-.66H88.64v.66c0,4.62,0,9,.22,13.63Zm675.19-13.19h2.63v-.44c0-4.4,0-8.79-.22-13.19h-2.63c.22,4.4.22,8.79.22,13.19ZM91.72,411.63c.22-4.62.44-9,.88-13.41L90,398c-.44,4.4-.66,9-.88,13.63ZM763,399.32l2.63-.22c-.44-4.62-.87-9-1.31-13.63l-2.64.22C762.07,390.3,762.51,394.7,763,399.32Zm-669-14.73c.44-4.4,1.1-9,2-13.41L93,370.74c-.66,4.39-1.32,9-2,13.41Zm665.73-12.32,2.64-.43c-.66-4.4-1.54-9-2.42-13.42l-2.64.44c.88,4.62,1.76,9,2.42,13.41ZM98.32,358c.88-4.39,2-8.79,3.08-13.19l-2.86-.66c-1.1,4.4-2.2,8.8-3.08,13.41Zm656.05-12.09,2.64-.66c-1.1-4.39-2.2-8.79-3.52-13.19l-2.64.66C752.17,337.1,753.27,341.49,754.37,345.89ZM104.69,331.6c1.32-4.4,2.64-8.57,4-13l-2.42-.66c-1.54,4.18-2.86,8.57-4.18,13ZM746.9,319.73l2.64-.88c-1.54-4.4-3.08-8.57-4.62-13l-2.64.88c1.76,4.39,3.08,8.79,4.62,13ZM113.49,305.88c1.54-4.18,3.3-8.36,5.05-12.53l-2.41-1.1c-1.76,4.17-3.52,8.35-5.06,12.53Zm623.73-11.43,2.42-1.1c-1.76-4.18-3.74-8.36-5.49-12.54l-2.42,1.1c2,4.18,3.73,8.36,5.49,12.54ZM124,281.25c2-3.95,4-8.13,6.16-12.09l-2.42-1.32c-2.2,4-4.18,8.14-6.16,12.09Zm601.53-11.43L728,268.5c-2.2-4-4.4-8.13-6.6-11.87L719,258q3.63,5.94,6.6,11.87Zm-589-12.53c2.2-4,4.62-7.7,7-11.65l-2.2-1.54c-2.42,3.74-4.84,7.69-7,11.65Zm575.59-11,2.2-1.54c-2.42-3.74-5.06-7.7-7.48-11.44l-2.2,1.54c2.42,4,5.06,7.7,7.48,11.44ZM151.08,234.42c2.64-3.73,5.28-7.25,7.92-11l-2.2-1.54c-2.64,3.74-5.5,7.26-7.92,11Zm545.69-10.33,2.2-1.54c-2.64-3.52-5.5-7.25-8.36-10.77l-2.2,1.76c2.86,3.3,5.5,7,8.36,10.55Zm-529.2-11.21c2.86-3.52,5.72-7,8.8-10.34l-2-1.75c-3.08,3.29-5.94,6.81-8.8,10.33Zm512.05-9.68,2-1.75c-3.08-3.3-6.16-6.82-9.23-10.12l-2,2q4.61,4.62,9.23,9.89ZM185.38,192.65c3.08-3.3,6.38-6.37,9.67-9.45l-2-2c-3.3,3.08-6.6,6.37-9.68,9.67Zm475.55-9,2-2c-3.3-3.08-6.59-6.16-10.11-9.24l-1.76,2c3.3,2.86,6.59,6.16,9.89,9.24ZM205,174c3.3-3.07,6.81-5.93,10.33-8.79l-1.76-2.2c-3.52,2.86-7,5.94-10.33,8.79Zm435.76-8.35,1.75-2.2c-3.51-2.86-7-5.72-10.77-8.35l-1.54,2.19c3.3,2.64,7,5.5,10.56,8.36Zm-414.66-8.8c3.52-2.63,7.26-5.27,11-7.91l-1.54-2.2c-3.74,2.64-7.48,5.28-11,7.92Zm392.89-7.47,1.54-2.2c-3.74-2.64-7.48-5.06-11.43-7.47l-1.54,2.19C611.46,144.28,615.2,146.7,618.94,149.34Zm-370.68-7.92c3.74-2.41,7.69-4.83,11.65-7L258.59,132c-3.95,2.2-7.91,4.62-11.65,7Zm347.81-6.59,1.32-2.42-11.87-6.6-1.32,2.42q6.27,3.3,11.87,6.6Zm-324.29-7c4-2.2,8.14-4.17,12.1-6.15l-1.1-2.42c-4.18,2-8.14,4-12.31,6.15Zm300.55-5.49,1.1-2.42c-4.18-2-8.36-3.74-12.31-5.72l-1.1,2.42c4,1.76,8.13,3.74,12.31,5.72Zm-275.92-6.16c4.18-1.76,8.35-3.52,12.53-5.06l-.88-2.63c-4.18,1.53-8.57,3.29-12.75,5Zm251.08-4.62.88-2.63c-4.18-1.54-8.58-3.08-12.76-4.62l-.88,2.64c4.18,1.54,8.58,3.07,12.76,4.61Zm-225.8-4.83c4.18-1.32,8.58-2.86,13-4l-.66-2.64c-4.39,1.32-8.79,2.64-13,4ZM521.76,103l.66-2.64c-4.39-1.32-8.79-2.42-13.19-3.52l-.66,2.64c4.4,1.1,8.8,2.2,13.19,3.52ZM347.64,99.21c4.39-1.1,8.79-2,13.19-2.86l-.44-2.85c-4.4.88-9,2-13.41,2.85Zm147.74-2.86.44-2.63c-4.4-.88-9-1.76-13.41-2.42l-.22,2.64c4.4.87,8.79,1.53,13.19,2.41ZM374.24,93.94c4.4-.66,9-1.32,13.41-1.76l-.22-2.64a131.12,131.12,0,0,0-13.41,2Zm94.54-1.76.22-2.64c-4.4-.44-9-1.1-13.63-1.32l-.22,2.64a136.49,136.49,0,0,1,13.63,1.32Zm-67.5-1.54c4.4-.44,9-.66,13.41-.88V87.12c-4.61.22-9.23.44-13.63.88ZM441.73,90l.22-2.64c-4.39-.22-9-.22-13.63-.22v2.64c4.4-.22,9,0,13.41.22Z"/></g><g id="Group_84" data-name="Group 84" class="cls-2"><path id="Path_954" data-name="Path 954" class="cls-1" d="M628.89,63c1.54.88,3.07,1.76,4.83,2.64A422.52,422.52,0,0,1,730,142.6a14.23,14.23,0,0,1,1.76,2A418.78,418.78,0,0,1,833.35,342.23c.22.66.22,1.32.44,2.2v.44c.22,1.54.66,3.3.88,4.84l-10.77,2.2c-.22-1.54-.66-3.08-.88-4.84v-.66c-.22-.66-.22-1.32-.44-2.2a407,407,0,0,0-98.94-192.38c-.65-.65-1.09-1.31-1.75-2A404.43,404.43,0,0,0,628.23,75.1l-4.62-2.63ZM37.25,267.92A418.86,418.86,0,0,1,119.7,140.84a13.51,13.51,0,0,0,1.75-2,424.79,424.79,0,0,1,37.16-34.51,19.24,19.24,0,0,1,2.2-1.76A421.08,421.08,0,0,1,329,20.14l2.64-.66c9-2,18.25-3.74,27.48-5.28,1.76-.22,3.52-.44,5.5-.88l1.54,10.78-5.5.88q-13.19,2.31-26.38,5.27h0l-2.64.66a404.37,404.37,0,0,0-163.58,80.25,15.93,15.93,0,0,0-2.19,1.76,436.17,436.17,0,0,0-36.28,33.64l-2,1.76A411.07,411.07,0,0,0,47.36,271.88c-.66,1.76-1.32,3.29-2,5.05L35.27,273C35.93,271.22,36.59,269.46,37.25,267.92ZM296.46,814.71c.44.22.88.22,1.1.43.88.22,1.76.66,2.64.88.44.22.88.22,1.32.44a406.91,406.91,0,0,0,297.69-21.1c.87-.44,1.53-.66,2.41-1.1a408.23,408.23,0,0,0,91-60.68c1.32-1.1,2.64-2.42,4-3.52l7.26,8.13c-1.32,1.32-2.64,2.42-4,3.52a418.89,418.89,0,0,1-93.66,62.44,11.79,11.79,0,0,1-2.42,1.1A417.19,417.19,0,0,1,298,826.8h0c-.44-.22-.88-.22-1.32-.44a12.4,12.4,0,0,1-2.64-.88,1.68,1.68,0,0,1-1.1-.44Z"/></g><rect class="cls-3" width="850.39" height="850.39"/></g></g></svg>